<mxfile host="app.diagrams.net" agent="Mozilla/5.0 (Windows NT 10.0; Win64; x64) AppleWebKit/537.36 (KHTML, like Gecko) Chrome/136.0.0.0 Safari/537.36" version="27.0.4">
  <diagram name="Page-1" id="heQrMd_dRbNgDCwH7B_i">
    <mxGraphModel dx="2276" dy="751" grid="1" gridSize="10" guides="1" tooltips="1" connect="1" arrows="1" fold="1" page="1" pageScale="1" pageWidth="850" pageHeight="1100" math="0" shadow="0">
      <root>
        <mxCell id="0" />
        <mxCell id="1" parent="0" />
        <mxCell id="aAZRxkTBsION8SIQc230-46" style="edgeStyle=orthogonalEdgeStyle;rounded=0;orthogonalLoop=1;jettySize=auto;html=1;entryX=0;entryY=0.5;entryDx=0;entryDy=0;" parent="1" source="aAZRxkTBsION8SIQc230-2" target="aAZRxkTBsION8SIQc230-11" edge="1">
          <mxGeometry relative="1" as="geometry" />
        </mxCell>
        <mxCell id="aAZRxkTBsION8SIQc230-2" value="" style="shape=image;html=1;verticalAlign=top;verticalLabelPosition=bottom;labelBackgroundColor=#ffffff;imageAspect=0;aspect=fixed;image=https://cdn2.iconfinder.com/data/icons/social-media-2421/512/Telegram-128.png" parent="1" vertex="1">
          <mxGeometry x="-67.07" y="720.0099999999999" width="48" height="48" as="geometry" />
        </mxCell>
        <mxCell id="aAZRxkTBsION8SIQc230-65" style="edgeStyle=orthogonalEdgeStyle;rounded=0;orthogonalLoop=1;jettySize=auto;html=1;entryX=0;entryY=0.5;entryDx=0;entryDy=0;" parent="1" source="aAZRxkTBsION8SIQc230-4" target="aAZRxkTBsION8SIQc230-63" edge="1">
          <mxGeometry relative="1" as="geometry" />
        </mxCell>
        <mxCell id="aAZRxkTBsION8SIQc230-4" value="" style="shape=image;imageAspect=0;aspect=fixed;verticalLabelPosition=bottom;verticalAlign=top;image=data:image/png,iVBORw0KGgoAAAANSUhEUgAAAS0AAACnCAMAAABzYfrWAAABC1BMVEX///+LxT/56YhZWVlWVlZOTk5UVFRLS0v+64twcW9QUFBISEiHxDz8/PuEwzpsbGvh4uDExMOGwzOmp6TY2diGwzXy8vFeXl2Dwiv56H/s7Ox3d3e4uLeMyD2NxkVCQkKYmJdjZGLa33b999fT57b2+u/w5oSy1IaAgYCNjYzU1NOwsK7A3qDw9eP///rO2m2pz1bP5Kn78LS00mCfzFP67qfq5ID67JnC12qhop7U3XXZ58Hb5szp89qo0GSv0nu+2pX79dj48Mb++uf68Lyo0XCqu2WCpU5+mVOCtUNzl0tsjkult1+HvEJ9qkf16Z3D2qiozX2Is1R3kllreF5shFBgalZwgl1ndVni2Sr0AAANj0lEQVR4nO2ceVvbSBKHJVsXOnwIH/IlbK74CMYEQzCEQEKYkMxOmNnMsd//k2xV62pJlg+efUIW1/sHD5Z1dP9UVV1daksQCIIgCIIgCIIgCIIgCIIgCIIgCIIgCIIgCIIgCIIgCIIgCIIgCIIgXiBHR1cnr4GTk3dH4+duzM/M+Pr1e9dxbB/HEd2b/aPnbtVPyfjqpuPYpiiaZsHDBKq2496SYAkOXnecKgplTicXx8e7u7vHx6eTKXwWxaoz3SefjDi4cWwRTGpycZ7TGLlcA8g1di+mIJhpiyekl8f41gazKkwuc6iSz5u9vbsPex8f3zbOmWC2ePXc7fwpuBLRrk4POakQ7ezjAX5991FrnE9QrynFL+HG8bTKpQBPfLuHDvjhsXE4KYimc/LcjX1mjlxbLEzP52jlK5Y724Pd9hrarmuKzs3Bczf4ObmqmmLhOFMrX7BPB4L1tpE7LYjV6QbLtQ9e6GYbVuSSj3fCJzAvGB3FjQ1eIFZhskwqX7DH8YeGduiapr2hYyOKdbrUsEK99u4audzUNDsbaV0o1sXKYoFcZxb8nZimuIGx62gty/LkEiDWg3W5G5fXjzumOVlLLCbXm0bOFas3z936H819VZyuKRbI9VE4a5xD3rX/3M3/sWDQOlxXLJDrTnir7RZEe6NC17gjFnbTpsWKD34Vwi9FJBFArtNC9f65e/AjeVVNBy1NO7w8nbrI9OL4l88PD59/SWWujU+ChaHL2aCsC8ZDM+GHWu5ywmp/DBPyhC9fvv76679Sct3BpHG3YLrP3Ycfx72ZyLS03IUbShXQEX/79jUl16MgnGkT014l0FvD7W6/322XrGV7NoGlOwnN9mzQH3TbzVU6maIG16itf9iBI4ox09KOxYKnUNWxRdsJdet0viWdsbEnCI3zVYyrNsiruiJJim7kR4ulsGRV3iktOV+5BadTJEXR1WJ5je4GFA115wnHvarG6g7a4dTXyqzeXI/H4+t7JzIw9+I8Ee0F4RMY19Isoq0r+QBJzy9spwX7qIvVsvqyFJ1P3VrfvrakvPwEtSB74A1rV/RtyXSDKeBVJBerQfOFVTAuC41rybC4bWCvZEORDF3C/rUX7GxJkmQsVKtZ1OEkimrkZRXvgpJfW66nqbVvm9yUB+swgR3VhNp2sdeHfr2zRV4vkRfsEY1rKjoLZ9ddFbokt4Y1y6q1e9DTvFHJ3tvaKm71FqkFcoJC9e1SzaqVthXQS5LW7ffT1HpvFnYj0zoMxYKsoNbT8S4P0FtjEd8XzDOuA2HcODbtRXXnsoHuNww+DtAw6mu3NKIP+uiDIEY3W/ixu+Y5nqQWxHiXM61pmDVMBaHlhRp1hElGAhDML99/EoTHwwLun0keTEHmjAV7qz4lNHsMQXxlwG2AnufV5YNojCepdeVwjqhdFgI1qq+EpuEH0bolTJMJBRPslBnXWPjYWOiKbRnE4gNVCTZI/ehzrTQsLUwZaqUSF5iK6If81xVwdL7rVrNSSZ2vWSoPS1HOkK0WtCZ9tAeMiJEjam4oiv27UJb9Mceogb+m1RLFggvmBXF+3LhYVEUF05J6sS0tQ1Vlv0FWuyerKgTsbhDKrNZWq1jy/tkCUYd92MGoz/yuVox8sqPw/U5obM1u3sD9u5w1W+0tSEtgSOgHB3JqlYqtVnHgN6fcYq2RBkMhDXQ5csTz0LTQtkK15JownScWjpuQqZ3BbHG3UL3NEqsEd14fxTbBva9UvOYN80EuoKgzv2uKPyZCNFfqMJ4qft7h2VcXw1TiEnC6wPjauu65hKKH9twsBheRjL6VUKsEl9OL3tZmTw1aY7RSyavlcKUa7SKyIEgJarp/gRbOuzPkggkmuOJZbkHgasN5jKwRvmxA63RD0rGVuuedYb6F//TaqgJZAn7tGyg4YixqxRlhUFMVBQ8w/HvUxMCp4EVQ6F5cLRArH4hVYTvi0QoOukl3vI6FLd6CnANhpnpRvgJpRoZaYuEcXfFjA3w4q/0DJRFmOEosbxo1rdoQUyh5llIrr8iDkmVVWsHIYO2kTJUDRwC5CweUWniTPHfaQpFmcJFKX8f/eLWYWL69WXWUmB09gL4rW4mTQ5CP5ogaLwO4otA1dF1Ge3bnhi1mXHD4G5haw1wxK8y3IGwlrxsAdiLVa5GqcjOllq+MhXcdbQ8dW54XVBhKFI66up+ntDEUDMONecmK1PLE8g/ehi9Vf8eRmh63T6pcZes8pgk+uW+OttvQlz+qKZEcP6dgpincQZh3rjM60JNiAyBPyWCm64F3Vukm1QqFnine/zgABl0SmrPtADYIQKxlp2DArWD9hQbos2CjpOs7w1AtFEsOGmehCW4HO8LNk4rx5t7yQyIX5Jlcr7znE9fvU35oTg/eRbbVuGNqvVtfLbiZEBUDIMCx0BRTKwzVZQyjSbVKO3rADlpMX+JCJJ4PLoyZkBpG7DYIWwnUqil8DByiDYY74mFGPNBDAhGWFbBoHKNavdnfP3lvp90Q04V7trlwqbGHi8cFO0utYrYngpNGA5fQREdoJtQKTQ9VQrVinlgyJITlOagWDOPRJAHTurwnWvr6oJYyYplbqMi2Hrut9VRGBmqF1Rp+SAz0su05WoFF3VjX/r945BsL1cqa+yyI8tAgrthg+R/jagXfB2rVDC7Kl/I9hq8W06cY4uWKCREitfIKyqyE38EUgx8+BkpyNPljsVqZVDued3p1xLd3jd1stUbpDGLYHwz6NU+NeJKOd3OxWihx5D3eYIYqoVpsHyUEZ7k1DHhRLIupBbLjnCmw7rilC9sKF8UYt7xap6urFdiY6x36YZFtJecl2BBIaRQraVssLA+XqjVIZ6f4HbMtNWZbQH2hWmoZp6yBL/bjanVTthWLW+uq1RFN/+A3OVAra+pjqXk+lvtNZVviocGqQ5+XeqI37YynEMx8Qa1mLG75ZHsijJhNJfJFuA3KLNoDPTFehuPHRC1jepOlVeff3y61yIszx0RhFuWJHug4rCHx9mE+gRa3RC0c6BNhm2WVlveVkczAIavgpqkDmIOWPbWY5WzLYV6FwwGXM/BDjMeJHeVbmrueVg+/cYntaXa+JdTQuHrcYIzmzyIZmAlX6ALTZ0awRC1hhMbFRxS0Nk+lPm+sze5sNvKGWiNK6hRvDhrOfKJxEe9WVFjCfEKNd+Qdl8trmdK4Ynye2Ol8+f7XN5t7UoTPfbKfWGP3lGiSivm0V72r8fkgzoK8uc0StaweNwcEymqYQaAdFQPjGsgK2yvwe19Yz9BCtbCk4ftikdvRKkqpcAfzxPDB62Fm2HI/f3Y7Ie6X739+/60Tf6zmmmamWNAMjA5Sm+lVwQmcJHnaoZOqnlwVzGJ71gpqsQ7m1T6zF6s5wGpZ4IE4YLY8uWayn2yyrLPLNg6VoNQW1SC6wV1iNV69z1pWaylzagFcDSKRysf4/PffXx++fXt4+PrX33/+87nTSS5QXVw8rW1hIq4rW/0WK4lIoWf0UMfiqNzus6KBJ8AytcCE0H303tagVcd6jjKQfLWYpeRn7fJ2HR3Qi9Kop17fLpf7OFdO1CC8ubTni1gDV+rdcrkrKeHRHGATQYeTqXzC9379p16v/+f7wxcwL8gdLmNiLapvMfpYmcn7ebcihdGzhs80YO6GiY8SNH+pWvBBZ6dTJKZ9CVIHf5bSVpmQeEIpKJgJA9go6TK7SL2ZUIt5sueLVp8lbDo+zpOMdKEjGhSXJKehI7JPZnyVCQb5zCHRY1hXva5BqwdcxK91ZXwoCx1XW74wlix7T18tXY4ew1Z2YHN4mDXTZe98itxqCpYh7wSl1aLqn68eJSftvMw26rJfnBGKqhw+fe0bcB3PkEaKHBw9p84R1eXXSbcKccvC5MNeukSw0t2C+NVrJR/F19r9Yq/Y6kajdRnAvlvBP0gTP/CHlQfFOpyvO/QPCTOH4axVBCct86mEVe62isXWKBzy8GzN8FTRuS04LdCdX7MPn/lo2UWslFjJFapLnvlwXVzzycwSrP/x+ZZyHz5PfLpY2pLniS+H8Fn1oiAfFyu1nBfy2sXPql8OtmiuEOQjzPQK1d2l6yBeDLdVls6vPEt0k1phIr8xqwNx/RYL1CuaVvqXQCut33opvELj0o5XU2vOb8y06fLlWy+HA1z/vaIjzgla2matOxVubXOyaJLIqzVnWf1mrWnG5/bmaqY1zw9Pzc1aLx9bKrmQOX54uWm/xYBAb4urFE7n/GLjXNy43/ksWuiw2LQgaNkb9xsy4SC10mGeaV2m1JqYK06nXxarhK50Fr+hv31lv7pbgpmaTU9Ns7ohs+kkS+UqnMdHw3N3c8VawRkTqYO4ye+DwDf+LBwZ+RFRY+8acTcyZgUcTDPXl3oLckOxvPfY/OAy70/HjZO9wjSc9WjnEzCslX6T+MK5crPMy1dL03bx/VvO/UZ7Ychre75eqJamHXrvdnM3qeqwkPHrzjy9IN3y3xvouPTeQI7x766Tngq5Ir7G03bek10lubp1neQCXbNq2/S+0wyO9m9cM3yZruOY09t9Cu2LGB+928cXNZ/s03uaCYIgCIIgCIIgCIIgCIIgCIIgCIIgCIIgCIIgCIIgCIIgCIIgCIIg/m/4L0Q2OftDaiCNAAAAAElFTkSuQmCC;" parent="1" vertex="1">
          <mxGeometry x="-21.11" y="1074.57" width="94.08" height="52.19" as="geometry" />
        </mxCell>
        <mxCell id="aAZRxkTBsION8SIQc230-7" value="" style="shape=image;imageAspect=0;aspect=fixed;verticalLabelPosition=bottom;verticalAlign=top;image=data:image/png,iVBORw0KGgoAAAANSUhEUgAAAWkAAACLCAMAAACUXphBAAABtlBMVEX///8Ax9QArUbkOSEBfO5RUE8R4e4E1ln/dVcMtv9OTUxKSUhCQUBGRURLSkn4+Pirq6re3t6IiIeSkpFhYF9ra2p0c3LX19e/v7+zs7MAcu0Au//z8/MAee4Aytg+PTwAde3q6urNzc19fXwAs/8AqTniJACfn55ZWFe9vb0ApzL/cVGhoaBwb24E2k4Dx1LjMRTsLgD0/P8GlPQBukzqbF741NBk1+DnU0B12+Pukoi87fHxqKDtTzX/8O374t9sra4JpvoInfetz/htqvMEtWbm8v1syIpGvW7H3/oUsVDo9+7a8uObxPfoWUnoYlPreGzvmI/0trCf5evyrab2xsHshHj52dX4pJbvSSn/oI3vVDnK8fT/k37/g2mdcYx6h6+IgKOxYnI7pOHQRjyxlYqia4F6qai9V1zIi3rWQC9Iw/8+usFjksJrzf/XhG8EifF8x/u4koaUUlWNQDajPjONo583cY5kTEgTcNRMQjQGmaMvhowGjchNNzRMQEgBi9gDwIMWmUUDuZECqawDzGsP2tkBmcQBn7t6sPQP3N4LzLB25ZlgxYKK6Kqm7b6+8tCM06QfDijPAAAS+UlEQVR4nO2djX/bRhnHlRelqaST/P4WO4rtJnGapPMS6LrStLRbuy7t1m605WUw9gZjA0bGO4zBSsdgg0H7H3P33OnlTif7JDu2W/X34UMjS5bkrx797rnnTpqmPdWkdPfcuVdfvXXrm7dv37t3/rULd16/e/fspUsXncmexd5z35nsAaeg2xv9sDao+v2Dc7duv3bn7tmLkziJvdW5ub1JHGiautTvL8jlcV+4de/C3UvHGeQE9JNPegDqADmJ8lfv3TmmAAfQGSCtXVwYhtrn3T93/u74aQPoLJBWRe3hPjh/dqxWQkHPjXOXM6sEqAH3Rv/23bHBZqCzQVq7eJAINcC+992xHPq5uUyR1pxzCVET2OdeH/3APujV0ff1eCgF6oWFjYULI5qIDzo7pNOhXtjo3xnloAHoDJHWtFtpUC9sHJxNfcQQ6EyRTol6YeNeSgsJg84W6bSo+wep0hAO9Nxz4/4xs61vbqRCvbCRIgvhQWeNtHY7LeoLSY/0/Fy2SadHfT7ZcUTQc88fz++ZYaVG/VqSo0RAZ5C0di8t6u+pHyMKeu7JH3OJ6nxa1D9QPYIEdCZJp0b9fUXUMtBz3zre3zSjSot6Wwn1d2SgM0paey0d6jdUUMtBz/3w+H/VTOpCOtTL2z8atucY0JklnRL19lDUcaAzMYwoVyrUB8tDUMeCzjBp7U4a1MuDUceDjh/c2ioUttKcf8fQ82m+NwW9ngL1NkH9ZlwVdQDo2KJp0zJNt5ni9OvIqqX42lSUAjUhHYv6W/Gg4wtMdaTrqJ7i7OsIPTaktbuJUb+xHI96EOh40mVD141SipN/rEgnR01JS1EPBB1bYMq7drFoW2HHdfLVdrDU5Ja0djXPrIaSjls7c0qK+mDZQy1OKhsMOrbsUTStatUyN+lS3bLbRWRZVo+Fa76CFyybrdZyOlksd2BbTLpu4EXd855OCS+hyoy2k2eTofZIL28v86iHgI7tjNtGT9NKhk7vkR1k6AiTNg0X8HVcG9k6slEFVnctA69EhpvTwOB7bNsd+mXXtnS8vds5HlSjKhlqn7SA+odDQMd1EWsIYWo5ZFE6OVO3e7V8tYh0hF3B0Q1zy3HaFRvSjJxl9Grtdg7pbhVIe9u6JIyrrlGqOk7NNMwZdZDvJhnGDUhzqIeCjuu4VGxCtG3ZXVjEpA3AVDSJobQtF1ykSdfbBgJTriOzAKTptjumWcT/7Np0Lb54O8fFakRdSoA6RBrrEtvDcNAxHZc2ssEXcNACpZxp7rAVRhn/47CG1yRLecsu0MWeAaTZtk1Ecpcm8tfaaVKZiWj4XHZfbyxLUCuAjum45FimRk2EkLaqdE3P0OFfp1MvdksGId1Bft5NLkCQ5enE66uWXcxXsfJlw5zwUzzqUkctkN4mqBVAx6XTHk/NILCANMscKK5mgSQirqUT0vhyhLvtYdI6uQ666YJsI1WfczK6tNBf6D/77HDeAmmCWgV0TJJXtXS9BNJ1COYwadvR2oaJeoVcLW8okLb0XompfKywRtPFhf6P33r7nf4w2NvLIurq6nDOcUlewdZtE4T/IC4bdo8esW+T+gWi7mHm6Mp23omQxkn5rDaEvNrvrmCdfOvDZ5ORXt7+hQppaZKHm7Jegaln2E1oEWknJY+MCmnkaEpStaBFdNmi47qVCOkmbUPJbtsza9NYeysnQSsn3x4Y1hHQy9ubKkEtPaifPWgkVSPWgLM8BPbRtXET6XjwyuAeOM5pxBchrRNI46/Q2l7HdbvHB2pU7a2cOsm08u578X2ZAwnpnyiQlqceZcPyixZtCFuST5ubtXrZJDatdU2z28nXSia0iNqWq9ubnVoXwfdE0nnXMHP56ibuQs5u5SkEmuidWAcRG0TVmJbWl/KuWQmWdk3c08vhxNlCCNkm6QVq7R4ySaGjpJuQIm/izjlCpolIj7JuefVpwzTIPzXLJH1100pTg52MBNAnV34ch1pG+tsKpKWpR75crgZLnXI5D7lHrWwgvUBTEGezZ5qlHa1Ypvbd6ep4uQh3QpV8AVQoF+kOCz1/7UxKBI1Rvx2DOtogLr85nLP6wDjN8pxwi+YIzZu4nGTtlBUFjVG/JUedtkFUHa4N8uknUDLQcVEtaRCXVUJaee70E0365zLQGPVPJaijNr39vkpIK89+3LHc6vCtHk/FgMaofxbNq6OgP1DqISrPX6p2C7NbshhNsaCxPhRRfz9dc5iZB5kHaRDolXdF/4iYx/YvlEI6c4+4RDUItCQBEXM8RdDZnKTOaTBojPodzj9E81DqsxBleEoe1TDQWIPMQxl0tp6ulUgB9Movn401D1XreGoeHw0HzfsH123ZflMZ9LTMow2jilWaNZK/ptRR90CvwABArN7tS0N6+1dzyqCnknl0Cj0yAknmPxHUu65lubvTOBEK+tTlK/v7R1j7+1cux3QVg155GLRKTdrTGB4l2oHRQfVZ1tWSZRs6FQweWPDXNIL6o5MnL+8vtlqtxdYiVgv+XDy6cvmkGN8r7/XF9nB7WbUtJFJqD5ubRaKcfG3bNYgs1V9Xcz3MHmlE/kJTIP3RKYJ5URTBfXRFqFV7jaJvHtsfqDvHnGJ7uItg3NbdlK5tQ0gqk8q7ekjuNEl/tB+lHMK9uH85jJrWPw5SBfScWnuYtxgWWwojIekSjWgEeHUY1pkS6Y8l4SzQDsOmnXIW0tu/ThTQig/mF03vVpeOACYj3YGtDX0rNPYyHdIfN4ZwZrCvnFoJBTVLOdRzuwQh7eierxoV2Xrq07arRqpgw93BjXFNhfQrSqDBRo4us6Du99+AHPr91aSglVy65pkHdlXpIODOLpFi7tEjlw3xjes0SCuDZoGNk5GV3/z2d8Sgf5/QOOZUO+JdGoXk/0afh9SkVPkrNgXSLyQBDaz3T/3BQuiPb24m56w4BEBt2MwRHHQi5Chips5TnTzplxOCJqz/9Gecf1mfpOCs+J6anEkdGtzaGvXRCchjxIfBJk5672hY1iERkEZ/SUFasYgHxoqzjk1C3JtunlqzQfrFteQh3fiU9Cr++nmKkL6hdFJVi2XSNKtGIw4kzgTp5N6BOV89c4j+9rdPlpYSB7XiOC1kZfCkShmyhhHneklJm3GknXynXq9vdcY87ympd7Qan90/c+LEifm/z3+1RJQItmJZugkUYJpHHUkgEbV3y+VyNwj2PFmmNlPNFSp4YTdPJo2BaG5e5mRISTfrFZPMAiTP2uldvtNUJV8T6zBOQfJhs+ufjKdXEnpH4+gB4Xzimfn59ftLSwlZq9b/Q3ibYB9udG5NEZECU/ATC2SZzCitlSxkk24N6modWodinSCDk7SPmTNRqBJl+0+bhg4hTD4pWrIPI1vuJeO8tvb5GQB9Yh5r/aulpUSwlQdawpYRGInwY0xIAwMMZDu0pXX9op3dZb3wAeJJt0tIWG9Y3WALCABTqHhBdiR+SHtK4dYlUUhjg/4H5UxCOhTUwHoo7FVl0LTwxk60I8uFY0nXCgGrxKTzphf85NkP9rdZ9jdpS+yeNtlCyk/bBa6KkCigWw8Y5xMnvjEPqL9YWlKFvbqkPnQIEG1vEn9PnlJLSRtlM7AJ7B55FyyXFasQpwjpNoOLrN1ibqdYskyG2t8CKoJ8V3OHbsRPHYTg55rxJCHd+PQZHzSYByZ9dUlUDO3VpQSgNfjBPlv4LXakzCQlTW9l1CtXiPCvz2/VsKAfpPdqnGyRdJnuwayzz9pFVi/0rQtOhU+EWDmWrxhUIldEPfFoNT4POFPzwDr9RQQ10OZwr66SDxOArkF7qHuLbYg+S8y55KTxF9FmJD1TyvLqNIcvhb7doQHrN22Q5tvhJ2a8Kjq382YkX1LPpdcW74dAs5DGOpSRlinJu2IrNt/G7EoKcbGkDV2SBiv1XKjv9LhOEqtr++O69J4J3Qc5v4oesg8IFS7KX1QN6cZnJ8Kgn/FJrz8YP+hIDNekZaYY0rasv6FCeoseVkjXNk0OIxw03GaAeYiRAKcSRq+c4jX+GebstYeyRnEMoDVavwtND3CkDOSkI6EPUiENd05k1IH2ofz4hBgPpZxtaifkZUahZ3jBuo3QXl5QbA8bn/CgA/PAijaKI4JmuWi4xF+UlZnkpOWv8VAgzUrYkZG0Ik1pwl8KmhBIMowS8A5uwqpwOZTNg2sLefMgQf3vMYOmxSXuzQW02REgyrM8+UwZBdL0sFbkQnVgM3/UuMsbA+li4YAnHhKkJDuixeylBB02DxX/SPjidCAmBHApEuYxpO1oX5JIgfRWzJgDazU8trSx845KgzkPbIO4L4nNplrm0fiXCJozj+H5R0LQTZkpU+vm32YgJS3ptRMpkPaGHkQ5Bnc+Te5MqHmw/Xv5M1wbLhX8UsWm1z6NgH5GIM11ykcFzYpLQmw1+cACjZn0pinyYaLNhu8FXKeELEA6CvbB7jm4O7gb8EgBdOtI5CyaB+m/DLDqxFMdy9LkuSuk2NrYSUtbXSLqXH5LSTvadBESEwh3cp28GwLONdxBvKZiHo37kZAWzWOgVScGzcZYxKSY9iDs8EeTJe2HKM3r6HbEtOntR9MNaE4dPlnR1HK8tahJR8xjEOrkk3eLMTcx9Eq4MtOxkJZ8XWyNaV8Fvkailx2R9F5opENQcDelQo7XWox6R9Q8QF9JScfxjBdN+ksVUT1dvAJTcg+WwxHLcPy/6Nfp6dFuZLhJUagurUUSvFjShzLUqngDsZlLRkTwMecqkyLdE0hToyBNBq0ShD6FnZHtuRb9mkI2vfYPSUxLQWNFDUSZb6BKaGhJovBNOaHcw4n4lu4lRwU7dEBiH2QrGMXg2m6FbLr1mSSkZTYtR62MN1B7yBBJGNaYSdclKTtRNL+HA5O5gii8AuyjwFJ/rjugMAggaw8HkBb65ep8A7EaZNQ8PP8I/YQxk6a9biMyiFaNJEO0yavDv0EJhNaeWJaqh/eg0CBKScttGnT6/oigqScavd1yVLtAOkRyzKTp7RR9vwXtO4Z912FFP8486CxkqwO3AG/3Cg2i1D3iQeOonvfDOtVTcKzKI5+FlxPGSMZMml5lcYybpR48Ouia2M2ewZ1rEcDDrYHCv0CpvNR4oNJv4Vgf/pskIV88kv7gYaLluJiZpW06YO4ntuMmTZ9BEN9+SrtM/GMJkHPYtJzqcFsapS5cr3BFUKWH2Dq69p9h5aUo6/XDq4frp1+S4xoo2viY0lq+xvKSoM0aN2k69cHk8zynZ0Ttm56nWHKkfcPocIJCD7G1eE3TRNTxDaIAPAXqunxo1hMLL2/1uEnT4Uuh5FIxo5+x4ZmI0XlDxsLg+fDUA0BHUKuSnl//OgZYvErS8aVA/GyhsZNmw9xWIQhzNntE9LO6N3sHhT/1Z/HwsTI09WCgNe2/Z1KRTo46P6g9JNrk0oCxk9ZyFJWJ27V2s5mvda1IaknVZg838g2lw/gLxxn09CGAbl3zNv2vfFh87Khpk2TEb8BfivGT1ryZZiayEP4fcwM3+tRSj10CftSR2YfwWM6wiA5A86gTkJ5fvx5PLSra7Y2mWSGBP3o95mMgrRWsSDXAkID2pogJI5s1eqH4ebF7g1MP3zqoQqiTkE6GuhPTdQhpi87wpXCANBqVtPCE/paBONaGVZKdUBXsQ6yS0JxEcPXBSV5r7Rq/j/+dSUU6Eeq8S95JP/jdxQbZhqW8ddg+cPUcLMvfyNuE990LhboyeeuEOAXeyfXY7GvDMJFbjnnDb5ccLBIVm3AK/D0wuL7Uelncs486GelEqNvkzSaDN3GC16CQ/+ZTlfuvPpHluDuiKdm3E/MmlXyuUC71eqXd4lb88xf50IkEagunpA1Jp6OgA9QJSc+vX53l17dOQIPS6TUJ6AB1QtK4f672tNaTqi/jkzw5aE17eCYVaYw601Ed33GJA+2hTkw641Ed23FpxIJmqAfUp2OVZdRx1elBoCnqpE0iVXZRJ7YOqoep7CPLqGPmqDdeGPbFm+nsA+vmJH7X7Ek+BWE4aECdjvR6NlFfk6XTKqAJ6pRBnU3Uss64GmiCOh3pbKJ+ORrTqqAx6pRBnUnUUdKNV9S/feMwJerTD4/vJ82oIgWmJKAx6pSk59czh1oknQw0ier1p1GtJKGUlxS0pjnXn6JWEk86OWisr08/Ra0grmiaCrSm/e9pVCsoTLrxZcqd3LieLqwzhTpUnk4NGuvhfKq4Pp1ufuRjqYD0KKCxHqVinSHUPukRQWMLScU6O6ivMNKNF8ews4fXTyeGnRnUbHBrbRygsW4+OlxPCDsrqCnpcYEmwrCTRXaqueyPn4D0OEET3Xz49fpp9dhOM5f98RMhPW7QoJsPX8JGooY7E1F91Doe0KAbGPf1QxLeQ4BnIaqPWmtXjvkQmPcjAE6IxzDPAOr9xv6kDnXjJkb+6KWvr189PJzHyBl5qsNJncXUtDdkXsdxHfbGDQweoyd6hJXB4a6nOhb9Hw/uzcM58AFIAAAAAElFTkSuQmCC;" parent="1" vertex="1">
          <mxGeometry x="122.1" y="600" width="207.77" height="80" as="geometry" />
        </mxCell>
        <mxCell id="aAZRxkTBsION8SIQc230-58" style="edgeStyle=orthogonalEdgeStyle;rounded=0;orthogonalLoop=1;jettySize=auto;html=1;entryX=0.5;entryY=1;entryDx=0;entryDy=0;" parent="1" target="aAZRxkTBsION8SIQc230-57" edge="1">
          <mxGeometry relative="1" as="geometry">
            <mxPoint x="321.5999999999999" y="1072.88" as="sourcePoint" />
          </mxGeometry>
        </mxCell>
        <mxCell id="aAZRxkTBsION8SIQc230-56" style="edgeStyle=orthogonalEdgeStyle;rounded=0;orthogonalLoop=1;jettySize=auto;html=1;entryX=0;entryY=0.5;entryDx=0;entryDy=0;" parent="1" source="aAZRxkTBsION8SIQc230-11" target="aAZRxkTBsION8SIQc230-13" edge="1">
          <mxGeometry relative="1" as="geometry" />
        </mxCell>
        <mxCell id="aAZRxkTBsION8SIQc230-11" value="" style="shape=image;imageAspect=0;aspect=fixed;verticalLabelPosition=bottom;verticalAlign=top;image=data:image/png,iVBORw0KGgoAAAANSUhEUgAAANwAAADmCAMAAACJZRt4AAAAjVBMVEX///8jHyAAAAAQCQsIAAAaFRYdGRocFxggHB2wr7DIx8hhX19VU1QWEBF7enqUk5PW1dVJR0fBwMDd3d0SCw339/ehoKDw8PD5+fkLAAPr6+vPzs5DQEG4t7cyLi91c3SJiIg5NTYoJCWCgYFaV1iYl5dta2ynpaY7ODlnZWazsrJOS0xeW1wzMDDk5OPMiNisAAAPmElEQVR4nO1daXuyOhAtgUBUcANFwAV3ra3//+ddUTJZCN6ivjX04XwrUpNjkslsmXx8NGjQoEGDBg0aNGjQ4B2Ih9tFp7PYDsN39+TlmLkImR7GnomQO3x3b16K4TdyDABG0/a7e/QyTBbINgQ4aP3uTr0I4TQyCrA2f2LphUuvyM0wgtPk3T17HpOBkpthmO67u/Y8UkvNzTDQ9t19exZ9xEnJ6LIdYPiToPO7e/ckXCCD0W4/nI03THJ6i3f37jmwgbM2+Tj5y4AOnVfvoetSaWJxG1uHsovqveoMks/ADvdwNM3VFafWArNv0jESJmA7l6AEx+/q2QswRGrRMc2FCuq/p18vwThXvKyW+HydL0Xr8z39egnSQD1CrXxeRvv39Osl+F9y4/f06yXY5gIFSeZpz1RP11phlguUIBWfb3K9BSVv6dZrkFCZvxLsG9/Ltz+rzlvBxM5ZRD3+8S4Xls6g1jbdkerN/KobU4XTTN/WsVegTXkQC6R+Csp0pNzDQz9Jkn4ddOo5NXBINGj5o7A/XoJHBStUy3DvrgKEkEUOa+2lzZAZq451AYqYI6yofMVdFOHbMiV2gJa6ewCPgVGCqCu/u4/El23U0VucxnNbzQ0vJVE5WSAiv+St9J6b/aDQ5eskNSSRMXEV7k3DjvSemn3elQ5DQnzptS+z+JaRuZHkF/XCeRkRuccn2eGcIiW3y9itNPdNp9jk6JGIFJwnCefeJA7G3OtmQfBohnO6QrmygtF3rygDmQuQWNjddb4Rc3Ba2tvrYbtz7S7eJaPip6DJGJ6xz6bhKPlij2rg39xfpaFs2t1AVWkjcGGF7YEd0nu3y3BzqKCZ4qMR5YFP3NM9XYeW/t6IO+RASbOEzY/aFPj4S118HHfIUXeEJwpGP+dM7N/p4RO4Q44OEZLUEeqwRgoZpBfukAMnrURiR0lrb93dIXeg5KTn1HmruQr2AVvBXxy5kX8LZwVbRUePJa6+OV1zWjuS2ot5lE8xE09TeZZRJ63k3zzXQVq25shjmjCxTXQSh4juc8QSLACqt2i8z/UPcgJRlkLU4WdnTDdxIUg5g61dW6/7tkjtSsNjPZ4xV0S0AJkyg9HW1TE92ZUZoQSlt1f6Xzx9czq7Sg+/CxautlaB0jGSA2XK1mTNpaZksK35V3c39Vjika723EbtGKHs1h8z0yz4jwj2MDeWkaYZft3S3KgbgiXz5il9ZBc4Bz0Vy5m43mwvCLDIAf5yoqk6AY5EeqpeoeCPNdFhkaa7y5anYHDZ+CYD1RS2dY1Pppww8VCPpkd1EZYYBNeNbHIsepyDlabCJOYmpXXkFs7ZFcYIW91cddx7oncao52e640pjBk3yU/Z5cbU3rDBidcE0SiPY1onfV3pTHZYPfkzFvuxp8IH8f44RxkcN9V0RmZIYFYqgoyTFWVOsGwCjeJ+kpz19qFvYVaq7GgWlNRXK76DAd0HcEf1MTW+ZY9XPQATT+1jhoGtY9Ll2QFySnEOCcLkW1dxXw6fKiLEUH4eU2FKiN6yQwVIkpVkPUVInT9GoKkpegf/S46uSeLVjxyblo7y8xgS8I36TcuYgEBRdh72eFtTe+0uYE0pfcwfPTpy6m1Qc3xRw8Y5KT6dMHmS/nbPXoA9aP4qe5OLCdfxBKsP3benBVd/CD5JspKEZdhv9dJ03NY79rEEJ0Mxk+SEGXNB3gwvFo9lBkGEvNNY4z2ixSxxS2Q32XDZebbBwvnDAwIrkDgW7ukb3eG8ddGUM3vac8FHRND8tijDjuR5J5G+SXvc0BkOWiTZ/JuEw00heGCj3WWF+auiX8xG2mZpnHg3l4cM93gceAXf1/VDvO1jRXLfRZjqemjE9wRnFrExtkXvHfAhplficlbrABpgXxbiyWF2VLmYIvQ9/Nm7y+6yoPyBIjLpmSbndlclseuB0hzRTEpel1NrLka5PNNdj3vHFUtA1VeHKQmsZpn4+cnAMLU4GWMdb+7KcBuAh2nzxv7fR3uljNGhA/O5+h1gh5j/NmFGk56BngyjLpIlITGRoHxAWCHgVRkw+bQ+Q3heEMRipbaHVqlowNKTkJLVTrOjNPf+hZ/HA/WZTBdD2famLEwxYAJJNtHv9fQxTG4HWCOV99zNdzv5dA+kR2nvibj5mJVyfVmStQeJbfpKlBx3yMEISc/rk5J4h1xZSiL1w+ifnn6HXFkacFQyovrhDjlI4N4Jj+lRCjL/nR4+gTvk4ECIuLhOuRCtQQjvDrkJzWJwltyqg9pM2pp0DHfIsYo33pRabxMwKIih+zaXpDeR6Jy2CrnOahVhnPrhZHRusTpvUfrrva2E1gBRC8YxrU1x9OCk0kWptpaDg2eBLkpsrTcC2dzG6EuO/Jz5jDdi869r6yK6olV0lHimnBzUKjPZA62jQFtVt0lBApY4JLDW+QAlQ0IseezWqheDg84LLpFPGgO7QqB/X5y+xcWpFb452UAI4ZgWXXb9pSB4iKmvM/2KHsty9qLV8tvgPF0KxePzYJnYzn4E27NIqvNyu6gZkPxKzEUyuR46hkeOKomj3/s6rAzj+9QtOCN0A5ypJRjkRwuS7WULJ8coPsdaL7UctGSg4B2BpPUaaPt3EFOHJRLcQuvcfLOnus+8e6B2mn0QHsdw0FbXAM5PQJecKSU5d0rcCrUC1NqTzADqVqh1lURwzUnO1s98RGtQl6AcMHJSUsK+pO5lrUCLd8p1LKlXQd+w4g9AE+ylzLwJHHqvs7T0adxRXHQzGrGa10ERKQUNAghqZEyfanxE+ieAw0rBBiKp4RRKJ+rvj7wHdszMW7av9CYzj3Ij8zprXxcswGVno+l6u+1+sxOANa8ufhk67jCx7Zl8EpRUi7WOKHXZ1btabo6y49T1v2giw1HJ7q9cXqOoW0lQ4aRnXbEPpBxY06uzUikhXiCTppESx0Lrmm9wEuLtASMUWciyB/taa5RqnJPZfj9LdPb9N2jQoEGDBg0aNGjQ4K0YhbHff481FPo5/knsYtROv+YeQnnYZ0Qb+6WU+z3K8S/O1Wy/UYCz7KKc3JA2tvwHjSlAzxL9gzoR/hIyR3NykCgweHljSvw7cv2I5bP9NXJCLcW/Rk64/PiPkRuxSAmTln+FHKtLh7p9Gvb5K+RoqoqQHvZXyA3oVcB8MZ+/Qo5WrRPybf4KOTiMxOe4/RVycLiMz1TRn9z5c7vobI7rcXIv9q08OVedXHxp7LjprMftRwJIanJhDyBGgf3eAVmmhzH2IkTWt2H5pO/edrN99l9wtqybfZBf06AmN2GN9QQK5+0AIdqYt7g1NqSv/iDZRU3OReYNlhC+93emyZ8nCKxFZqjt8rfzsOog+xNe8q6f3NvEj7QxU0iIi7sep50axEO7LJKU0sZ+UDNfSW5Hz7gRgdtWjqQahpkVUaJJKXni7KlYb+MeOXYcRuC2twtXE3rOkNW7+0mWuIpcqmwudIsx8KxS//A5cmPWGLdrqMp2Z79161lyW2Vz8XdJhXfT7z5BjuWz8OfpwmnZZYrJ9ilyn+rm5qrqUBmcE61G8AC5tgUnLVLW2KSkVH6W1d/FT5Bjx6uEtItBWXMXditDIDcwPe4+Ceci7HAZOR/WlVD8rVN+1wP8cI+QO7NDK3y6DG+dES/3hMgrPieX7haLBZVzzuZ4wVeiJBdCXyM+RXPMp17hvDH55ooHyMVQvMXiT+UnXHNBsBtmrrKwna7EQ3T8MYOfbOKjJZ3qJu+eOnM8vOg4uzaWbOeW0Fh1ciwh1Pzi3+LupURrLm9hTPiVqCRXrn5NXNjpT7yyw51Qtnacx7El1PKrTG7SoWUOA5dvjt1LaWNRMTjzS78iuQXdTT2hXCQroEkCMfs95O9dqUxuYSmbY78l8eR8w9GUjV01crB5O3Mhh2UNdSSjgoblsp+yKrm0pLlQufHliKHeeDVyIDVIJDq7YWnJVz18ZFcGPCotoTmbxMp3DE+Vds7ueqlCDnZT+ZJjWAJK04FJtkrkjtBJO5Bc+VA+Qn3dDK0AUoGc26YSkZjSRIfEd3XGLa0fU4kcWdLDbySQv5VWDC+pHwcD+2NyxhyKkEdyEiN1vtjfysbgK6qQg1qqxCrkTMKVauqTYzHNSvw5OWituIjhy9TpxKMleYAcRVAQUSCby47o0DpKFcjRxgrFJ2JwCZbkgR8f0C1Ze6n8CizisnpIkuJcgVzxljZ2TKjEr5A+YBUYrHahPC2hHhIp+Y5UNHl+QI5AbEs+RtiHnb3EQ0OPt1UhZ7t0chFDyguFmxtXZeSCiuTIlEpYgiUBTMkR54Xk8BFmnycFWeEDq+Q7Kk9L++TTIjBYKgfApmUJuUem5WUTh0KxUv48EyglYftDVYFy2Z+h5m4kdhIucygrVdd50FgdwBkxQVLBreAlpzWrbwWZ8nEEsSiKZ6zywzOE3w9sBRm5Mz1uZItHF6n2WHID5WflTTwjF0LOvljzmC79Eo3hoU38ahWAtyYQ6sfRrYVg5bx0q6tfmdoIETyxgAqLfSnz3XePqF83YxVuIRNENBVQhRP9V7AwY0V7bg3X3fNfy8pXqOYJKyT2gCUOJgW/ns+wPQXF69XgiHF1S5zV5uBCQbDClUUQBuCDfsCHwgwOvoIhTDxnWZiYO2YdVyT30QfTgL/mBvR+e1VQ97hzbY94v9YwBblZwTyn3lRaCV1Oo6pKjrl/vU3xpUuflhI7vszWQ35LmGWI2QAjdnUGXvH7gS/clFuZHHM88f5fsA8NTPj94Nzh9eCHyLFryGz2u3Fl7ol1muWTqL3zBDd0dXIxjQgQ7i7gIdcYGrTyqZJ0seAXfsydDt4GzNn5/P0LjoVW7tFdIrkCd3VyTDY6XAW3HXfVyKUx4h43h0JjDwZCvugvZKXw7Cw6fImDHa7c4ePkPhZUHnFrXLylNrvsgTUGPuoHyZ1V1g83VySQlfuAbglElrAfsPWVqOJXOTb2U+TYXOFVklZZg6jVrWrP8Y6tNhiUnItvWNpY77kQ1gc36XkRPVNfjYEWcvCxGjkWY3G4ck1tSxkxszpPR1Y53yd/6ts/WIXf085iQc+RY0XEeOvnfCo2RtCuYtgYOVeIgY8E4dtjLOhAPcMSlrptrTJ7ZRHdXubtQPoFErnbQ0+4RevMGuOtn/FKnCokut7RlObfEf2A3HDgXnES392e3Px5R7hdYTtFkZcZK4RgEx221zWZ5i+fOG07/1p3wNucCX0qFq1u0cbcDa/dheMBsjyHNjbvXXe8MW3sFSfSJWt/4o8XA8NE3vex1//nFSb8ffeUNTbv9JK/dUy7QYMGDRo0aNCgQYMGDRo0aNDgTfgPZn7wJt53kBMAAAAASUVORK5CYII=;" parent="1" vertex="1">
          <mxGeometry x="100" y="708.79" width="67.39" height="70.44" as="geometry" />
        </mxCell>
        <mxCell id="aAZRxkTBsION8SIQc230-53" style="edgeStyle=orthogonalEdgeStyle;rounded=0;orthogonalLoop=1;jettySize=auto;html=1;entryX=0.5;entryY=0;entryDx=0;entryDy=0;" parent="1" source="aAZRxkTBsION8SIQc230-13" target="aAZRxkTBsION8SIQc230-26" edge="1">
          <mxGeometry relative="1" as="geometry" />
        </mxCell>
        <mxCell id="aAZRxkTBsION8SIQc230-59" style="edgeStyle=orthogonalEdgeStyle;rounded=0;orthogonalLoop=1;jettySize=auto;html=1;" parent="1" source="aAZRxkTBsION8SIQc230-13" target="aAZRxkTBsION8SIQc230-33" edge="1">
          <mxGeometry relative="1" as="geometry" />
        </mxCell>
        <mxCell id="aAZRxkTBsION8SIQc230-13" value="" style="shape=image;imageAspect=0;aspect=fixed;verticalLabelPosition=bottom;verticalAlign=top;image=data:image/jpeg,/9j/4AAQSkZJRgABAQAAAQABAAD/2wCEAAkGBxISEBUSEhMWFhUXFhcbFxcYFxgVFxsdFRoWGhgWGBobHiggGBolGxUYITEhJikrLi46GB81ODMtNygtLisBCgoKDQ0OGg8PFzcdFR03LzcxKyw3MTAxNzI3Ni03KysyLTUrLzc3LS0tLSszLzcvLC4tLzIrLS0rLy0wLjIrN//AABEIALIBGwMBIgACEQEDEQH/xAAcAAEAAgIDAQAAAAAAAAAAAAAABgcFCAEDBAL/xABEEAACAQMBBQYDBQUFBgcAAAABAgMABBESBQYHITETIkFRYXEygZEUI0JSoWJygqLBFTNTkrEIY3PC0fAXNENUstLx/8QAGgEBAQADAQEAAAAAAAAAAAAAAAEDBAUGAv/EACoRAQABBAAEBgEFAQAAAAAAAAABAgMEERMhMfAFEiMyQVFhcYGhwfEU/9oADAMBAAIRAxEAPwC8aUpQKUpQKUpQKUpQKUpQKUpQKUpQKUpQKUpQK6ridUUs7BVHUnkK7KgHEu+OqOAHlgs3qc4X6c/rWHIvcK3NbPjWJv3Yt9Npjs7a8E+eykDEdQOvXGceVe6qR2betBKsqdVOffzB9DVx7Jv1niWVOjD5g+IPqDWDEy+PExPKqGxnYU48xMTumXspSuM1utBzSuM1zQKUpQKUpQKUpQKUpQKUpQKUpQKUpQKUpQKUpQKUpQKUpQKUpQKUpQKVxXzJIFGSQB5k4FB9Gqm35n1X0mPwhV+gGf8AWp1tDe+0iyNes+Sd79elVjcyme4ZvGSQkZ/abln61yfEb1NVMUUzudu14VYrprm5XGo0y+29gmO1t51HJkGv3bmrfQ4+ld+4+31t3ZJWxGwyPHDD/qP6VYktijwdi47pQKR6AY5eVVrLubddqyImVBOHJABHgfPpXzex7lm5TctRvv8At92Mq1kWqrV+dfnv6Sa+3/gXlGjufP4R+vOo9f78XL/BiMegyfqa90G4mhS9xOFUDLaRnA9z/wBKie0Oy7QiANoBwCTlm9fn5VjyL2VEbrny7+I6suLYwqqtW482vmenf7M5u5vDdG6jUyM4dgCpweR6npyx1q06iO5O7fYr20o+8Yd0fkB/5jmpdXQwqLlNv1J5y5fiFy1Xd9KNRH18lKUrcaJSlKBSlKBSlKBSlKBSlKBSlYbeXee1sI+0uJAufhUc3Y+Sr1NBmaVUsvG+LV3LOUr5tIqt8xgjPzqX7n7+2m0CUjLJKBkxSYDEeJXBwwHpQSulKUClKUClKUClKUClKUEP3z3oe3cQw8nIyzHngHpj161A7m9nuG77NIx6Dr9AKn++W67XBEsRHaAYIPRgOnPwNV3dWskTaZFZGHmCPp51ws7jRXPm9n8PR+G/88248muJ876/4zmz9yrqTBYCMftHn/lFSfZW4sMbK7uzspBH4VyOfTr5fSolsfeW7jYKjGQHACMNXyHiKsLZW3A8iwS6VuChdolOoqoIGX5dzJPIHrg+VbGHbxq+dNM7j7701s+7l2+VVURTP13tmMVwa+q+WGeVdVxVa77bydsxgiP3anvEfjI8v2R+tercXdvURcyjkOcanx/bPp5VH96NlfZrlkHwnvIfQk8vl0qdbh7W7a37Nj34sD3Xnp/QYri2PUyp43ujpDv5HpYccD2z1n55pPiuaUrtOAUpSgUpSgUpSgUpSgUpSgUpSgxe8u2Fs7SW5fmI1JA8z0VR7kgfOtZL6+ub+5DSEyzysFUDplj3UUeCjP8AU1f/ABbsXm2RcKgyV7NyPMRSI7foprXawvXhljmiOHjZXQ9RlTkZ9D0+dSVhNtocJNoRQGUGKRgMtEhbX5kKSMOfTlUd3N2LeXdyn2IMroQ3bcwkWMc2bHX9jqefLGa2F3M3ph2jbCWPkw5SRnqjeI9j4HxrM2lnHECsSKgLFiFAUEtzLHHiTQfcAYKocgtgaiBgE+JA8BmuysJvXvPb7Pg7WduZ5Ig5u564Uf16CqL3i4mbQumOmU28fgkXI4/afqf0ojY7Nc1qXFty5DaluptWc5ErHmPnU93I4q3EMix38hlhJwZSB2keehJAGpfPPMU2q96V8xyBgGUgggEEcwQehFRzfbfKDZ0OqQ6pWB7OIfExHifyqPE1USTNM1rRt7iFtC6YlpzEh6RxdxR7n4m9yawttt65RtUd1MGHQiVj/qSKm102ypVOcO+KMjSrbX7A6yFjnwAdRwAsmOXP83tVws2Bk8gKqOa893ZxyrpkRWXyIz9PKqU334q3EszRWL9nCpx2oALyY6lcjur5eJrCbrb1bSmv7WI3s7K9xEGUsMFNYLjp00Bqk6nlKxuOcJXxP2p/Zjpb2IETyo7SS/FIoBACoWzpBy3ryro4Bwl7q9mYksI4gWJySZGkJJJ6n7sfWsLxpude1mX/AA4Yl+Z1Mf0YVm+FW2Idn7LvLyblqnCoPxSFI10oo8e8ze3OvmmmmmNRGofVVVVU7qncrD383vi2dblzhpnDCGPPNmHifJASMn1HnWKj36dYbWZ41YT28ch0nGCw76j2PL5VS9zPebXvs4Mk0pwqj4I0Hh+yijmT4+5xV0R7glbG2txLmSCMqWI5MWOogeSg5x6VjyOJ5J4XuZcbhcSON7Xj3n25bXkAIykqc1DDqD8S5H/fKsJuztU21wr/AIT3XHofH5HnXdtDdS7i5mPWPNO9+nWsfa7MmkcIsblicfCRj3J6Vw7ld/ixXNOq/wBOr0VqjHizNFNe6J/PRdSMCAR0PT51915tnQdnDHGeqIi/5VA/pXpr0UdOby063yKUpVQpSlApSlApSlApSlApSlBwygjBGQeoqgOJ24BsX+0Wyk2rHvKOZhY55f8AD8j4dKvW82nDEyJJKiNIwVFZgCxPQKOp6V3zwq6lHUMrDBUjIIPUEHqKg1W3c29PY3C3EDd4cmU/BIvijf0Ph9QdlN2d4ob21W5iOFIOoHqjL8St7eda+8Q92l2ffNDGcxMokj81DFhoPsVPPyIrO8NNoNFs7a5/AsCtjn8TrKhPl0C0VG99t432hevNklNWiBOuFBwuB+Zjz+Yq2txOF1vbxrLeIs05GdLDMcefwqp5E+ZPrVObn6F2hZ9p8AuIs5/eGkn+LTW1VBiNpbr2U8ZjltomUj8igj1UgZU+orXjfzdn+zr1oAS0ZUPET10tyKt5kEEevKtn6164z7USfaZSMgiGNUYg5Go5cgewYCkkJ9ws3iC7EaSduVp2ik+OhBqQc+p0kD6VTO09o3G0LvtHy80zqqJk4XUcJGPJRnmfc1O9nWrxbpzvg/fyav4C6qD7ELmo3wuaMbXtu0x8TBc/nKtpx60Fvbm8NbSzjVpUWe4x3pHUMAT4RqchQOnmcZrObZ3RsrqMxy28eD0ZVCup54KsOYPOs5XFVGqG8OyWtLqa1Y5MTlQ3QkcirehKkHlVxJt+STdR52c9qLd4i+eZYEx5z+YjB+dV1xXlDbZuseHZL8xFHn/WpFtBxFujbr4zyr+srOf5UqKhm4+xlu9oW9u4zGWy46ZVFLFeXngD51sLs/czZ8Eiyw2kKSJzVlXDDkRyPsTVN8E7TXtQN/hwyN9dK/8AMa2CJxSCWsXES5Mm1rxj4TFB7Rqqf8tYGa4cxohYlI9ZRfAFzliB5kjrXdtmfXcTyE51TSnPoXbB+mKle+G5jW9hZXsYyrQRC4wMYdgCkp9G1aT5YX5BanCrd21t7JJoWErzqGebGCf92B+FVORjzBzU2qhOEG+ItJ/skzYgmYaCTyjkPL2CvyHhzx51fYNEMVxivqlUcYrmlKBSlKBSlKBSlKBSlKBSlKBWN3iE5tZvsraZ+zbsyQG7wGRyPWslSg1HuL+aSTtpJZGlyDrdjrUr7/DgjoKs+w41yrFpmtA8oGNayaFPqV0kj5VI98eFEF3K08En2eVubjSGiY/mK8ireoPOorHwTus967hA8xG+foWqKgm8W257+6M8ozI+lERcnABOmNPE82PuSasPaW777M3bmWTAmuJI+0APTWyL2efHSo5+xqZbncNLSxYSkmecdJJAMLn8ijkp9eZ9awvH25xZW8YPN7gEjzCRyH/5FaCjz/34f/lWdu1xhmhjEd1D2+kYEitocjw1Agg+HOsfwn3Tg2gbtbhSVVIgjKcMrMzksp88KOvmazt3wRbP3N73f95F3vqpAP0FB4N5eMFxPGY7WL7PqGDIW1yc/wAowAp9edRTcndKbaVwI1yIgczTdcDqVB8ZGz8s597I2PwVhVg11cvIPyRqIlPu2S2PQYqy9lbKgtohFbxLFGOiqABz6n1PrQePa2wIprB7JRojaLs1x0XAwpHsQD8q1ivrKe0nMUoMc8TA8jzBByrqfI4BBrbWo3vduVa7RUdspWRRhZUwJB6ZIwy+hyKCu9i8aXWMLc23aOB8cbhdXqykcj7GvqPibc7QvbW1t4hBG9xHrOrXIyq2t1zgBQVQ58etfM/BKXV93eqV/biOr56WxUh3P4Ux2dwlzJcPLJGSUAUIgJVlyRzLcmPiKCnN8bntdoXci/inkx/CdGP5anXFKMwbJ2VakYIUE+eYoQpz85TWcl4LxNIZDeS5Z2cjs0xlm1EfqakW/O4K7SaItcPEIlYKqqrAlyuWOf3QKCDf7P8Ab5uLuTHSOFQf3mkJH8q/pVubduhFazyt8KRSMfZVJ/pWF3E3MTZkcqJK0vaOGLMoUjCgY5cj0z86zW3tm/abWa3LFBNG8ZYDJAcFSQD44JojU+yj1GND+JkU+eWIB+eTW2MmyontvsrqGiMfZlT0K6dOPpVd7P4MwxTxS/a5G7ORH0mNMNoYNpOPA4xVpUVqxvju69hdvbPzX4om6a4yeR9x0PqPWrc4O75/aYfsc7ZnhUaGJyZIxyB59WXkD58j41I9+dyodpxoHYxvG2VkUAsAfiTn1U8voDUY2TwhFtPHPDfzLJG2QdCYPmpA6qRkEetBZ9K4Fc1UKUpQKUpQKUpQKUpQKUpQKUpQKUpQKUpQKq3jPsK9u3tha27SqgcsVZBgtpAHeYeAq0qUFdcGd3rizguPtMJieSUEBipJVUUA90kdc1YtKUClKUClKUClKUClKUClKUClKUClKUClKUClKxS7yWZn+zC5iM3+HrGrPTHv6daDK0pSgUpSgUpSgUpSgUpSgUpSg+JpVRSzEKoGSScAAeJPhVd7Z4w2MRKwLJcEHqoCx/Jm+IeoBHOo9x33gcyR2CEhNIklAyNRJIRT5ryJx7VitwuGibQtPtMly0eWdVVFVsaDpy+rzxnAxyIqKs3dHiJZ379khaObGezkGM+ehhyb261Kr25WKN5G+FFZm9lBJ/QVRWwOFV616yyMYYoJAROuNTkEFTCPPHUnkOnOrH4tbR7DZEwz3pNMQ54J7Q4J5eOkMfkaDo2HxTs7ueK3ijuNcpwMooA5E5Pe5DAqditZOHW3ILG+FzcCQosUgURgMdTlAMgkctOv9K2F3Z27HfWy3MKuI3LBdYAY6GKE4BP4lP0oSy1KiO8vEWwsnMUkhklHWOJdbL+8fhX2JzXt3O3sj2jHJJFHIio+nL6QScAnABPmKqJDSsbt3b1tZxdrcyrGvhnqxHgqjmx9AKgl5xpslP3UM8nPrpWMe41HP6UFm0qFbt8TrC8kEIZ4ZWxpWUBQxP4VcEqT6Zz6VNaBSvPf30cEbSzOsaKMszEKo9yar3avGWyjJWCOWfBxqAEaH2LcyPXFBZVKrHZXGe0dtNxDLCCQNfKRBnxbTzA+VWPZ3ccsayROro4BVlOVIPiCOtB30rg1Fd5+INjYt2csheXxjiGth+94J8yKCV0qtbLjNYs+mSOaJScayoZR6tpJIHyNSPbm/uz7WNJJJw3aLqjWP7x3BGQQF6A+ZwOdBJ6VWcXGiyL4aG4VPzaVb5lQ2fpmp/sjakN1Cs8Dh42HJh+oI6gjoQeYoMRxFecbLuTba+17PlozrAJGsrjnqC6unOtf9zd357u8iSGNsJKjSOVIVAjhmLE/i7pGOuTWwW+G+Fvs1Y2uNZ7RmChAGbujJOCRyGRz9RXzufvdb7RWRrdJFWNgGLqq5ZhnAwxycYPzqKklK6bq6SJDJI6oijLMxCqB6k9Kgm0OL+zY2KoZZsZ70cfc5eTOV1D1GRVRYNKr/ZnF7Z0rhXMsOfxSJ3AfIspIX3OBU+ikDAMpBBAIIOQQehB8RQfVKVF959/rCxbRNKWk/wAKMdo4/eA5L8yKCUUqqG42wasC0l0+epM++M/1qZ7qb7We0MiByHXm0bjRIB+bHiPUZpsSSlKUClKUFP8AHTdp20bQjXIRezmx1CgkpJ+6CSD+8KhXD3fR9mzHUC9vIR2qDmQf8RPUDqPGtkpIwwKsAQRgg8wQfA1QXFPcNbBluLfP2d20lOvZsckAH8hxgeR5eNRV82V2k0ayxsGR1DKw6EGql4/7Q/8AK22fF5SMeQKLz/jblXHALashNxaE5jRVkQflLsQwHocZ+tQzirtXt9q3B56YsRLzz/djLEe7MaDLbh8NRtG0+0tcGPMjqoCBuSHBOSfPNTHiBts7I2bBZWpAldSgcDBVFH3koH5ix5erZqY7kbM+zbOtoeeViBOeup8u38zGqS4ybU7basi57sEaR9cjJXtHI8vjUH9yg8u4W4c20izBxHAhIeQ95mbqVUZ5nnkk/rVtwpBu/sptTmXDsVyArSSSElUAHTp18ACayfDbZn2bZVrGRhuz1uD11SkyN+r4+VVpx42kXu4bbPdjj7QjP4pCVGR5hV/mNBEoYr/bd8TyeYjvHmsUKfrpX6lj+lgW/BOIR5mvZA+nmURFQY6nvAkj5ivbuVf22ydgpeSKzGY620KCzM5KomegAAAyahm0d4Np7emNtCmmLlqjQns1Bx3p5Pxfu4+R60EN23aJDPLEsySojYWVD3W6cx5EE45eI5VsTuZtqRdjx3N/qjaONzIzrglYy2H04zkqAcY514tyeGltY4lkxPcD8bAaE/4S/h9zk1i+PO0WSyhgU/30vf65KxqW+mrTnNBWm9u81zte7VQpKF9NtAOvPkGbzcgZJPw+nOphsbgtK8Ya6uBG5/BGofHoWPU9Og/604BbNRprm5bmyKkaegfUzn3OlR9aumg1p393Jl2ZImX7SKTISTGkhlAJRx0B6keeD5VNuAW1mIuLM/AmiVPTtCwce2QD8zXr/wBoC4AtbWLnqadnHliOJ1b9ZVrG/wCz/afe3k2eQWKPHuXY/wBPrQSvi1vc1jbLHCcTz6gjddCrjXJjz7wA9T6VU24m5M21HkYPoiRvvJW7zM7d4hR4tggknzHy9/GfaPa7VZM92CNE65GWGtseXxKP4atbhNs/sdkW+QQ0imUg9fvSWH8pFBTfELcttmSRDtRKkofSdOlgY9GQRkgg6xg+hry7j7nS7SmZIyI400mWQjIGonCqPxMQDy8KlPHjaAe+ghB/uYWJGOhmYePtEP1qbcFNnCLZayYGZ5HcnGMgHQufPkv60FacQeHzbNSOVZe1jdtJyoVlbBI8eYIB+lSX/Z/vH13kHMxgRSDyVm1q31Cr/lpx/wBo961th0+8lbn5YRRj+JjWU4C7NCWc9wes0ukHP4YAVH87SfWgi/HTaPabQihzyhh/mmIJ/SNKnXBjZ4h2Usp0jtneUnpy+Fcn0Vapbeu7e72jcyICWkndYxnV8LdnGB6HSD86u/fiT+z9gNFGSNMEduh5ZGoLGCfkc0FTcQd75dp3PZx6jbq+mCMDJkOcCQj8RJ+EeANSfYnBiWSIPdXHZOcHs0UPpBHRmJwT7cqw3BXZYl2mJCuVgjZx5Bm7iH6F/oK2EoNY9+t0ZNmXCxs4kSQM0TgYJCkBgw8GGoehzVo8CdpvJYyQucrBLpj8wrKrhfYEnFRfj1eBr23hH/pwsx95mGB9Iv1qWcE7EQ7LadsjtZZHOemlO4CPTCZoOjixv+9ofsdo2JyoaSTGezVvhC+Gs4Pnge9V5uTw/udo5myI4Cx1SvlmdvxaF/Fz6sT9aj15O15du7t3rifJOegkfAwT+VcAewraqwtEhiSKMYRFCqBgclGB0oKc23wYljhL21x2sg59m6hNQ8QrAnDeWeXt1qttj7UezuY7lQdUL5I8cDlIh9Suoe9bZSOACT4DP0rU2ZPtV2wUY+0XDafQTynH0D5+VBtmDXNcAVzVQqJcT9rXdps9p7QLqV17RiurRGchnUdMg6evIDJ8KltfEsYZSrAEEEEEZBB6gig103M4gz2dzJNOZLhJgO0BbL5X4WTJ0jkcY5Dp0xXu4h8Sv7QgFvFC0UWoNIZCpZtHNRhSQBnnnPgKnG0eDdi7lopJYQfwKVZR+7qBIHpXr2FwnsLeQSNrnYHK9qQVHrpUAE+9RWN4I7tPBBJdyqVafSEU5B7NckMQemSSfpVN7wwst3dKwwwuJsg+sjEZ+RBrbIConvfw+s9oMJJA0cwGO0jIBI8AwIIbHhnpmmh5txt/Yr6GUmF4vs0amVm0lOjE6CDk8kJ5gdRVC2yNfXqry1XNx4g4+9fJ5dcBSfpWwGw9wYrWyuLSOaXFxnXIdAcZUJ3cDHwjyrH7tcK7ezuo7lZ5XaMkqrCPGSpXPJc9CaCexoFUKBgAAAeQHICqP477KdLyK6x93LGI8+Txl2AI8Mqx/wAtXnXk2ps2K5iaGdBJG3xK3Q1UUFutvxFHZPs6/hea2bIQxkB1DHJU5I5A8wQcjpWcu+K0EFv9n2XZ9jgEKzhVVc/iCKSWPj3sVmNocFbckmC5lQZ+FtMmB5AkZPzNe3Y/B2xiYNM8k+MHSxCJn1CAFh6E+FRWK4N7b2ncO4lYzWoLEyyfEHJJKxsPjGTzHRegx0r28d9kvJZxXCDIgkJk9EdcFvYNpzVlW1ukaBI1CoowqqAAB5ACvqWMMCrAEEEEHmCD1B9KI1l3G3ul2bOZEUPHIFEsZOMhScMp8GGT6HNWR/41QthY7SbtGKqoZowmpyFGWDE4yeuK9O2uDdpIxa3kkgz+AYeMfuhhlR6A1zu1wigt5o55Z3leNw6rhVTK81yMZOD60VDeN+0u02gkX+DCucHIDSnUR6EBV+oqweDtj2GyEkbI7UvKc4+E/CeX7Cg15du8JILq5muHuZg0rFmCiPA5BQB3c8gBU1bZCC0NpETEnYmJSmNSArpBXPLI60Gs08hvtokjB+03YA8ARLKFU+2gitpbaBY0VFGFVQoHkFGAPoKgW7fCi2s7qK5WeVzESVVhGFyVZeeFzyDGp/KmVIBxkEZ8s+NBrBvxevd7TuWTJLTdnGDj8GIlHsWGfnWyW7+zxbWkEAziKKNOfXuKBzx48qhGyuENtDcRz9vK/ZyB9LCPSSDkZwoPXnVjURrZxW2n2+1rgjmItMS4/wB2O8MeetmHyq2tnH+zd3AxwHjtNZ5cjJIuQD/G4FeB+D9u1wZ2uZ2JlMrAiPmS+sgnTnGamG9m7639q1s8jxqxUkpjPdIOOYIxkCitf+GOze32rbIcEITI2fERLkfPWUqe8ftp4S2tgRlmeRh44QBV/Vj9KlW5fD2HZ0zzJLJIzJp74QADOcjSBz5V1748Ooto3AnkuJUKoECqEKgAkkjUpOST+lBgeAezdNtcXBxmSUID46YlGQf4marTrGbs7ESytY7aNiyoD3mxqOSSScADxrJSLkEA4yOvl61UawcRNqfaNpXUo5gSMiYBGRF3B+oNbDbB2KIdmxWnTTbqjEeZTDkZ82JNRGw4P28c6TG5mcrIHIIjwxDaueF8TVkYqK1GvLN7eV4XBSSFyp8wUPJh6cgQehyKtjYnGoLEq3dtI8g5F4imlvXSzAqfMdKnm9e41ntAhpkIkAwJUOl8c8A+DDn0IqJf+Cdt/wC6nx7R/wD1oONpcSvtOy76eOExqhSFNbDUzzYB+HIGlW1dTUD4R7M7basBwdMIaRiOg0qVTP8AEw+ldvECW1tkTZdizPHHI0twxbVqmKqgXPQ6VXmMYGR6gTTgPsMpDLeuuO1ISIkcyidWHoXJ99IoLXpSlVClKUClKUClKUClKUClKUClKUClKUClKUClKUClKUClKUClKUClKUClKUCuDXNKDXXbXEi/W+ujb3WmPt3CphJFCodAI1rkA6NWOXWsTtDfjaV0DC93I4OcpGEUn0xEoYj0rY293ftJjmW2hc+bRqT/AKV6LPZkEX91FGn7qKv+gqaXaktx+FE07CS9VoYB0izplf0P+Gnn+I+lXpbwLGioihVUAKoGAAOQAHlXZSqhSlKBSlKBSlKBSlKBSlKBSlKBSlKBSlKBSlKBSlKBSlKBSlKBSlKBSlKBSlKBSlKBSlKBSlKBSlKD/9k=;" parent="1" vertex="1">
          <mxGeometry x="279.53000000000003" y="717.57" width="84.05" height="52.87" as="geometry" />
        </mxCell>
        <mxCell id="aAZRxkTBsION8SIQc230-15" value="" style="shape=image;imageAspect=0;aspect=fixed;verticalLabelPosition=bottom;verticalAlign=top;image=data:image/png,iVBORw0KGgoAAAANSUhEUgAAAQEAAADECAMAAACoYGR8AAABBVBMVEX///8+erNFdaVDdqlhZGRCeKxAea/70lv4vDr4yE/6zlb4wkX5y1L82WX71mD3v0FXWlr4uDX83Wm/wMDHyMhkZ2f1sSvq6+taXl45c6n95HBql8SlpqaKjIyBhIS1traVsM3++e/+9eIwcatWhLL19fXG1OS4ytwtcq/4uCPT1NT4vDSTlZVMUFBydXX70FD96Iz834T1rxP97cD+7avj6/H4wl/1qADc3Nx2eXl5nsQza5/+77iuxNz83or4xT75zWP737RDR0dNg7hrk7vX4OsjZaCMqcmgudVwl77+99j96rv71XT95Jz97Mn736L96oP6z3v50Yz5xWj5wVP626r715JyYFoMAAAKo0lEQVR4nO2dCVfiyBaAI8QRtdUgAYITgixBiSzvYTOCtKOOC9qL/brbnv//U15VZatsJJFAFbG+c3oOIYt1P25uLck5w3EMBoPBYDAYDMbKGI1Onmb3d83m4ykE/PePP2dPVw8j0g1bCWr7slVpViqVTcgfJhvNJnBxd3lCun3Lpn3/2NRj33QZ0AEajlXSjVwiD60pHr6PAcDp3QPpdi6Nq8dsdjPUAHDwRLqlS+Jkmo1mIK0KVCgAGjCrYLCBjdNUFsSrCjLQvL+6mlnVMMDAxmkay2ELCsg22/Cz2qqEGLgk3dzkGSEBFeMOH4UY2Ngg29plMEJlIGtm98w9InInQfoqATJQuTc3280QA+nrDlBfmI1sYONPko1dCrqBStS7IL0GjBrfDq2EaTWQbc7gRjtsPJBiA5uV5vPsrhkyJky1ATgqDpsXpN1A+MyIGWAGUmrgseJDs1J5NwYejv25rLwXA0GcNJmBNBt4aAekfrS74PNHi5cG6VjeQPtyOp1Wsn71L2Il/HRosT/Y/0Q6oJg8tKbZTCaTzWSdxOkNPx0eHR0hAXuA/b21yoMZij8BA5YAoGDwmXRY0XmeZjJJGDjEBezvD+qkA4uKJSAJA1b8+/tbX0lHFpFjS0ACBnABW4MvpGOLxIMtYGEDjvgBA9LBReI+k5SBfbeArcEL6egigKdAEgaw+Ld2PqxDJbjMJmrAIWBnZw26AxUXsLgBl4CdwTnpAENx3ARvN9C8hAbc8e982P6XdIChHCeTA6dXHPdtyxawowsAkA4wlOdMMgYeOG7PToAtM/7ta+oLQSYZA3ccVx+47gAoYPua9v5wNE3EAHx0/GXLHT8QsL37nXSIIbSTMQBfoNjzJgA0QPuI4CoRA6dtkAIDbwJAAzekQwzBMR56qwHYEdQHPgkABOzuUl4K7zOLG4ACuK87PgJA/LtnlC8VZRY2cNqCb9X+PfBPAGCA8s4g3ECl0jSwPjTRi+U6l+h1Oz8BuzpnlK8RhBlobl4+tYPRX6pu7A/wQZBDwO4Z5d3hfAPTVjv8ZdH6t8A7AHCwzgYqrXbo+fWXvwd4AnxwxX+wzgaa+ltUnz/+x+a/LvYGg515CbDWBprHYHf945GB9ThIXwLQ58E7rnmgM34kgHoDrSADU/gS2ecjHM9iuHse6E2Ag4Nc5zfpGOfzHGAAvU/7yRO/j4C5CXCQy3UoHw88BcwLHkccdx4hAeZVABg/MED5mPDE30AFDHQb8RPAR0DujPJ5wUOAATAM+J9vAuzNrQDb7vhzuVfSIYag+hqozPAquEAC5HL5H6RDDKPlZ2AKhkLfQgR4FgL84s/lO7ekIwxj5rdWDG6CehIJkMvnh5SXAXcpNOuAVQdj9oEHbgF52suAe6nUMNACZeBwoT7QiD/foXxECPGrA8DA+eHidwBgSPloAPLk8+xYN+DuA+OVQETpL9LhRWAUZGDxBAApQH1PAMGXizED+8F9YGAJdMWfL+VJBxcJn7doDAMLJkCpNKR8Xmgy87xJpd8FkRPANQq0BKxJCnD4uBDPgUUToFS6WIsqABkFGoizEOARMPxJOrDojDJTXwN+8UcrgaV8aUj9nMjBk+7AYWChO2BYWoPRoAP16nlq8rgJDQQMgq51zkw6NkOb19/Uz4h8GZkAAwP/BLipN8IhHUcinG/53wE3pBu2Ms4H/hXghqv7Q7rBiWMa8OkD8WVQg3znF+kGJ865/U5IpC5gHSaB8Tif+0DYI2AtpsHxgAbSthAQj/NBvEFQSg34JICjDoJRkDkKTKeBkATofG/Ubw9K+ig4lQbC5oH60O9XqZRSA9chJdB6Kp5PsYG5zwNz5pE/U2qgcW0lgM8D4Vy+ZM3+b4fQwHotBkShfh3SB1qPw35DA+uyJhqHr1GfBr2iJcF0zIgdfLkOGQUaSYBSoET/A9I3cBO2FvoKf/efSMAF5a9LvY1G2FJgaTjMX+gC1mhVOA6Ns4O5Aiwu0tcVGjR83ojwxp/aDIDUf3RyoQmwPk+G3kTj5uzM8zQEj7+UwoGAi8aPTgda8MY/vLh4vU3fCqkfL/++dkDNxwUMhxelX+8kfJ36y/cfeeN50MVF6a/vt433FL5No/HSeKehMxgMBoPBYDAYDAaDwWAwGAwGg8FgMDBUbUy6CUTRusVegXQjiCJJvPC+DRR5ZoAZSNaApnSrVa0LPlVp/n+nY21L2oBa7tbK4j8aJ/5TTvCyySJWi/ZG8neBLHJaUeaqRVoNFHqCtGwDYlcpy9QakCWeX76BQn/8rg1oVVXi+HdrQEX/VI7armDpBqgnhQZUtQxwfxt4E8Y2gC4fkNLz9q2IsawUJUEQpL6MxawWFMlxVLXbrcIPYrU74QFdgB63ZUCrVRWlWnObA4MHcHmBV7yatO4E7ZMmNWISCkVB4g0k+6eEXT6PHycKkiTADzXjeAlsd9Eu3UBZhpHAb3td/MSxZP0BoSfie1QZnWDs4x37VobWF2DgQlFRwI8E2lEzdtTgFn6kCL7QDfT0iEC8PcwAFIMyCe5S7PMK6LK9frGHPsj2nhqIGtiZKBMe7uKJrDEUeiB+3kh+sQiboRnNCzRQHo+7sA6MAfqJ8DwQuVCUxbHWRQq6jr/QRxcV+xKmYIzcG39ag7v43up7/zJqhGPTrHDBBji/SggTSdbvZA391kYwZXCkZGVEFSoQ7c99O2RYWrCmrAoYsoDdfjBjjR8prgH7V0enmsHA3xa7Jfrwl9ZFVZ17oCr8mivCbQC1UG9GTANSjXNs8330CeaDoNl7NFuOywCn8K4/uBI8BuBNrLc4pgHHeKBr7VYsFwZ96wu3gZpEhQH0G6GfcxED1rmq5+aGuwS0su42UHD/wZXgMYDuxgn8tIgBK5ix+/r6N0gxzQZQliZioCCZv7iJahUCSg1waHgGi3UiBuBxgqOTV60qSbMBCbY5OQOO8T6sDPpt9o4MOHOAGYDXR1NMWg1IidaBguf61FdCNDNIri+w+z4T6ntDNCJC7YIGHMP0txhA42XHYgHKCnRfUGoA3bgomBoWMOJNBtAoG78KmhFanyg0gGZ5qtkgx2DmTQZQ0mO7VHubTgNoXqtnLWy7XrQN3Aaw1gYbwCab1onGJj0G+InVXTnWNoq8o4ppaBs7EBvpzDFQdojUMOMUGeCFqj6DR/NT50KhUDVWsSb6keaJPUeFm2OAq/Xs1RPRXoChygBc4OxNlIngWsmU0U6Bnyh9uMgp4QZQlegXjGX+eQbQZSRBrhXkIjzJygd6DEiyvVwu9fDJvNzDltEl2VHWa3CfZKwV85LHgGQ/ayjA9XBwAXSCfVsBA5LLgESsEmpVuPQNcqDqXKwtm98rsqbbsveNu0VrtVxRlAneo4gT8I29qdb66DJCX8ZmSTI4pht80oqw+gJ1XKgVxt6nNmpZFI1HWmOnAf1pV9TnPGVNFDUan4R75wXBjN2DxFQQxwDsySbLbQ4B4hgAXRmBJxrLJo4B0Bc4HgqkgzgG+u7FjlQQwwAcsPTDD1s3ohuAj4DX/k0ZH6IaKCuC49loegg3oKrlgtyHw+Ze+joCQLkXZkA23wopavMOW1tUBQQ41wBaOBQkhcw7PqugXODn1je1x09kMX29IIPBYDDSy/8BxVnsDeBChE0AAAAASUVORK5CYII=;" parent="1" vertex="1">
          <mxGeometry x="85.99999999999987" y="1050" width="55.07" height="42" as="geometry" />
        </mxCell>
        <mxCell id="aAZRxkTBsION8SIQc230-16" value="" style="shape=image;imageAspect=0;aspect=fixed;verticalLabelPosition=bottom;verticalAlign=top;image=data:image/png,iVBORw0KGgoAAAANSUhEUgAAAQEAAADECAMAAACoYGR8AAABBVBMVEX///8+erNFdaVDdqlhZGRCeKxAea/70lv4vDr4yE/6zlb4wkX5y1L82WX71mD3v0FXWlr4uDX83Wm/wMDHyMhkZ2f1sSvq6+taXl45c6n95HBql8SlpqaKjIyBhIS1traVsM3++e/+9eIwcatWhLL19fXG1OS4ytwtcq/4uCPT1NT4vDSTlZVMUFBydXX70FD96Iz834T1rxP97cD+7avj6/H4wl/1qADc3Nx2eXl5nsQza5/+77iuxNz83or4xT75zWP737RDR0dNg7hrk7vX4OsjZaCMqcmgudVwl77+99j96rv71XT95Jz97Mn736L96oP6z3v50Yz5xWj5wVP626r715JyYFoMAAAKo0lEQVR4nO2dCVfiyBaAI8QRtdUgAYITgixBiSzvYTOCtKOOC9qL/brbnv//U15VZatsJJFAFbG+c3oOIYt1P25uLck5w3EMBoPBYDAYDMbKGI1Onmb3d83m4ykE/PePP2dPVw8j0g1bCWr7slVpViqVTcgfJhvNJnBxd3lCun3Lpn3/2NRj33QZ0AEajlXSjVwiD60pHr6PAcDp3QPpdi6Nq8dsdjPUAHDwRLqlS+Jkmo1mIK0KVCgAGjCrYLCBjdNUFsSrCjLQvL+6mlnVMMDAxmkay2ELCsg22/Cz2qqEGLgk3dzkGSEBFeMOH4UY2Ngg29plMEJlIGtm98w9InInQfoqATJQuTc3280QA+nrDlBfmI1sYONPko1dCrqBStS7IL0GjBrfDq2EaTWQbc7gRjtsPJBiA5uV5vPsrhkyJky1ATgqDpsXpN1A+MyIGWAGUmrgseJDs1J5NwYejv25rLwXA0GcNJmBNBt4aAekfrS74PNHi5cG6VjeQPtyOp1Wsn71L2Il/HRosT/Y/0Q6oJg8tKbZTCaTzWSdxOkNPx0eHR0hAXuA/b21yoMZij8BA5YAoGDwmXRY0XmeZjJJGDjEBezvD+qkA4uKJSAJA1b8+/tbX0lHFpFjS0ACBnABW4MvpGOLxIMtYGEDjvgBA9LBReI+k5SBfbeArcEL6egigKdAEgaw+Ld2PqxDJbjMJmrAIWBnZw26AxUXsLgBl4CdwTnpAENx3ARvN9C8hAbc8e982P6XdIChHCeTA6dXHPdtyxawowsAkA4wlOdMMgYeOG7PToAtM/7ta+oLQSYZA3ccVx+47gAoYPua9v5wNE3EAHx0/GXLHT8QsL37nXSIIbSTMQBfoNjzJgA0QPuI4CoRA6dtkAIDbwJAAzekQwzBMR56qwHYEdQHPgkABOzuUl4K7zOLG4ACuK87PgJA/LtnlC8VZRY2cNqCb9X+PfBPAGCA8s4g3ECl0jSwPjTRi+U6l+h1Oz8BuzpnlK8RhBlobl4+tYPRX6pu7A/wQZBDwO4Z5d3hfAPTVjv8ZdH6t8A7AHCwzgYqrXbo+fWXvwd4AnxwxX+wzgaa+ltUnz/+x+a/LvYGg515CbDWBprHYHf945GB9ThIXwLQ58E7rnmgM34kgHoDrSADU/gS2ecjHM9iuHse6E2Ag4Nc5zfpGOfzHGAAvU/7yRO/j4C5CXCQy3UoHw88BcwLHkccdx4hAeZVABg/MED5mPDE30AFDHQb8RPAR0DujPJ5wUOAATAM+J9vAuzNrQDb7vhzuVfSIYag+hqozPAquEAC5HL5H6RDDKPlZ2AKhkLfQgR4FgL84s/lO7ekIwxj5rdWDG6CehIJkMvnh5SXAXcpNOuAVQdj9oEHbgF52suAe6nUMNACZeBwoT7QiD/foXxECPGrA8DA+eHidwBgSPloAPLk8+xYN+DuA+OVQETpL9LhRWAUZGDxBAApQH1PAMGXizED+8F9YGAJdMWfL+VJBxcJn7doDAMLJkCpNKR8Xmgy87xJpd8FkRPANQq0BKxJCnD4uBDPgUUToFS6WIsqABkFGoizEOARMPxJOrDojDJTXwN+8UcrgaV8aUj9nMjBk+7AYWChO2BYWoPRoAP16nlq8rgJDQQMgq51zkw6NkOb19/Uz4h8GZkAAwP/BLipN8IhHUcinG/53wE3pBu2Ms4H/hXghqv7Q7rBiWMa8OkD8WVQg3znF+kGJ865/U5IpC5gHSaB8Tif+0DYI2AtpsHxgAbSthAQj/NBvEFQSg34JICjDoJRkDkKTKeBkATofG/Ubw9K+ig4lQbC5oH60O9XqZRSA9chJdB6Kp5PsYG5zwNz5pE/U2qgcW0lgM8D4Vy+ZM3+b4fQwHotBkShfh3SB1qPw35DA+uyJhqHr1GfBr2iJcF0zIgdfLkOGQUaSYBSoET/A9I3cBO2FvoKf/efSMAF5a9LvY1G2FJgaTjMX+gC1mhVOA6Ns4O5Aiwu0tcVGjR83ojwxp/aDIDUf3RyoQmwPk+G3kTj5uzM8zQEj7+UwoGAi8aPTgda8MY/vLh4vU3fCqkfL/++dkDNxwUMhxelX+8kfJ36y/cfeeN50MVF6a/vt433FL5No/HSeKehMxgMBoPBYDAYDAaDwWAwGAwGg8FgMDBUbUy6CUTRusVegXQjiCJJvPC+DRR5ZoAZSNaApnSrVa0LPlVp/n+nY21L2oBa7tbK4j8aJ/5TTvCyySJWi/ZG8neBLHJaUeaqRVoNFHqCtGwDYlcpy9QakCWeX76BQn/8rg1oVVXi+HdrQEX/VI7armDpBqgnhQZUtQxwfxt4E8Y2gC4fkNLz9q2IsawUJUEQpL6MxawWFMlxVLXbrcIPYrU74QFdgB63ZUCrVRWlWnObA4MHcHmBV7yatO4E7ZMmNWISCkVB4g0k+6eEXT6PHycKkiTADzXjeAlsd9Eu3UBZhpHAb3td/MSxZP0BoSfie1QZnWDs4x37VobWF2DgQlFRwI8E2lEzdtTgFn6kCL7QDfT0iEC8PcwAFIMyCe5S7PMK6LK9frGHPsj2nhqIGtiZKBMe7uKJrDEUeiB+3kh+sQiboRnNCzRQHo+7sA6MAfqJ8DwQuVCUxbHWRQq6jr/QRxcV+xKmYIzcG39ag7v43up7/zJqhGPTrHDBBji/SggTSdbvZA391kYwZXCkZGVEFSoQ7c99O2RYWrCmrAoYsoDdfjBjjR8prgH7V0enmsHA3xa7Jfrwl9ZFVZ17oCr8mivCbQC1UG9GTANSjXNs8330CeaDoNl7NFuOywCn8K4/uBI8BuBNrLc4pgHHeKBr7VYsFwZ96wu3gZpEhQH0G6GfcxED1rmq5+aGuwS0su42UHD/wZXgMYDuxgn8tIgBK5ix+/r6N0gxzQZQliZioCCZv7iJahUCSg1waHgGi3UiBuBxgqOTV60qSbMBCbY5OQOO8T6sDPpt9o4MOHOAGYDXR1NMWg1IidaBguf61FdCNDNIri+w+z4T6ntDNCJC7YIGHMP0txhA42XHYgHKCnRfUGoA3bgomBoWMOJNBtAoG78KmhFanyg0gGZ5qtkgx2DmTQZQ0mO7VHubTgNoXqtnLWy7XrQN3Aaw1gYbwCab1onGJj0G+InVXTnWNoq8o4ppaBs7EBvpzDFQdojUMOMUGeCFqj6DR/NT50KhUDVWsSb6keaJPUeFm2OAq/Xs1RPRXoChygBc4OxNlIngWsmU0U6Bnyh9uMgp4QZQlegXjGX+eQbQZSRBrhXkIjzJygd6DEiyvVwu9fDJvNzDltEl2VHWa3CfZKwV85LHgGQ/ayjA9XBwAXSCfVsBA5LLgESsEmpVuPQNcqDqXKwtm98rsqbbsveNu0VrtVxRlAneo4gT8I29qdb66DJCX8ZmSTI4pht80oqw+gJ1XKgVxt6nNmpZFI1HWmOnAf1pV9TnPGVNFDUan4R75wXBjN2DxFQQxwDsySbLbQ4B4hgAXRmBJxrLJo4B0Bc4HgqkgzgG+u7FjlQQwwAcsPTDD1s3ohuAj4DX/k0ZH6IaKCuC49loegg3oKrlgtyHw+Ze+joCQLkXZkA23wopavMOW1tUBQQ41wBaOBQkhcw7PqugXODn1je1x09kMX29IIPBYDDSy/8BxVnsDeBChE0AAAAASUVORK5CYII=;" parent="1" vertex="1">
          <mxGeometry x="19.999999999999964" y="699.9999999999998" width="55.07" height="42" as="geometry" />
        </mxCell>
        <mxCell id="aAZRxkTBsION8SIQc230-20" style="edgeStyle=orthogonalEdgeStyle;rounded=0;orthogonalLoop=1;jettySize=auto;html=1;entryX=0.5;entryY=1;entryDx=0;entryDy=0;exitX=-0.047;exitY=0.624;exitDx=0;exitDy=0;exitPerimeter=0;" parent="1" source="2dKdWCBImw4KJ0Op0K_v-1" target="aAZRxkTBsION8SIQc230-2" edge="1">
          <mxGeometry relative="1" as="geometry">
            <mxPoint x="40" y="1150" as="targetPoint" />
            <mxPoint x="410" y="1240" as="sourcePoint" />
          </mxGeometry>
        </mxCell>
        <mxCell id="aAZRxkTBsION8SIQc230-66" style="edgeStyle=orthogonalEdgeStyle;rounded=0;orthogonalLoop=1;jettySize=auto;html=1;" parent="1" source="aAZRxkTBsION8SIQc230-24" edge="1">
          <mxGeometry relative="1" as="geometry">
            <mxPoint x="225.98999999999978" y="1240" as="targetPoint" />
          </mxGeometry>
        </mxCell>
        <mxCell id="aAZRxkTBsION8SIQc230-24" value="User Output" style="rounded=0;whiteSpace=wrap;html=1;" parent="1" vertex="1">
          <mxGeometry x="165.99" y="1150" width="120" height="60" as="geometry" />
        </mxCell>
        <mxCell id="aAZRxkTBsION8SIQc230-28" style="edgeStyle=orthogonalEdgeStyle;rounded=0;orthogonalLoop=1;jettySize=auto;html=1;" parent="1" source="aAZRxkTBsION8SIQc230-29" target="aAZRxkTBsION8SIQc230-4" edge="1">
          <mxGeometry relative="1" as="geometry" />
        </mxCell>
        <mxCell id="aAZRxkTBsION8SIQc230-29" value="CoinGecko API" style="rounded=0;whiteSpace=wrap;html=1;" parent="1" vertex="1">
          <mxGeometry x="-9.07" y="997.25" width="70" height="34.64" as="geometry" />
        </mxCell>
        <mxCell id="aAZRxkTBsION8SIQc230-33" value="" style="shape=image;imageAspect=0;aspect=fixed;verticalLabelPosition=bottom;verticalAlign=top;image=data:image/png,iVBORw0KGgoAAAANSUhEUgAAAMwAAADACAMAAAB/Pny7AAAAolBMVEX///8xYZIAAAD8/PwzY5Pz8/PEz940Y5WMjIz39/erq6umpqba2trv7+8uX5GEnbnU1NTo6OiPo70+Pj7c5Ox0dHRUVFRNTU2+vr7g4OCamprMzMxoaGjt8fVfX18jWY0mJiZ8fHwAR4IyMjIQEBBFRUWEhIS1tbUSUYgXFxcdHR3R2eOdrsV7lLO1wdJHbpoAPHxlgqZXeKCouc4AJ3EAM3cVl9dxAAAMY0lEQVR4nO2baXeiyhaGywJpQETmuUBBhYQp4O3//9fuLnAANX36DL1i1qqnP3QsgdTLrj0VBCEGg8FgMBgMBoPBYDAYDAaDwWAwGAwGg8FgMBgMBoPBYDAYDAaDwWAwGIyXgAMeR8YxTlr74Uo8rkJ/LXHPzn4dpKUSeqsgkL0w1MfZSnroBeJRFAMvVHL7DV95P3q+9NUz/hTJD6LsOlXHDnJF94N4Mn2MTSeK7N1uF8UH+OQG/ldP+hP84ID3ZrQDK4jiLjps6ScXv7k7MEsAY3ZEl5e0pEjLUBbjLTZz/avn/QQudPDWlsP16AnSWvOCnbPHca5xiCOE0BXHIalsTqeqOgklkZDu2Xu8U7545k8IDzj2dCQJTWUADcwWLZV8pSDSVJu6rmGsBDFNXyRJorZ9t2lATm5iJ/zqud/jm3jnI2J0/EKl8HzbbSoLzFH1i4VK579YtN2JSJaRJHAMjPBdxSEtwu6LqZF2OPJRCXddhUkDoCcpeAFZHQwtePg3SuobjjupCXzi6eeaIH+HndcKAx4+hKhsk1EJhedVtQJ5yWIQMo7B/FWYf1mo589JWyI/xrv1VwuYwNk4oFqu0x6MU3PW3RAlKSwkpZdxtSiRdsCvFAR8bIZoU8wmrfIWVxf3UsAcSSGgkr+qaS1OxKsXqgZCHFPDzC1QI+GH+ihmwatgm+a6IlVDWmHxhUqBI96h03zi6sIidfGwyEbbfBBUXYyWdFJoxsuvlnAj3q/I5s4wHXdvq5uaopNId15oSUdeS0y2Da+Tu4g5cdUTj7l8W3ECP5oy6S3NjF5IzN7Urf7OMhbpH0PZdRHyJanHr5POCk37hcRgc122M59RW84q1M/EQILZoGY0zbDMXikAPIopOiR8DEleXTxIUosiVUtYmKMYydvKLxSaQYwwE8OnBqpSmHLb8+ldGOCLpKuqqkTG4FPJBkKz9tUKJrzdW4b/OKHufzXU+ZJkFfNA8GGQ8axqzDWVFLyUmEPmzwMA/9FwAvQxFoC4bppvihPiSmNjCFyVDKFAWNqHV6o0oyE0T8X8LBE0MjXMlTdQubhajQd/J3V32qQdGcQsWktxj38qmHHEssrSItP4IhFLEGCMu36eOywUVxBpZ2IsJLS0CSCkBVe/mSYxOKO1JOGHgYzBMh3x9n/I/zmrqltKXzfnpY2IsOl/0LGuKocxcqrL2VkhPnLGNKuAZaQ2hQhsWFZXQyy4fMer4Expt0ng/w2VmBhotf0z3Rnk5aQzTk0DktLOGobKumjr6tScqi4pDDoGVhBmp/k4mtdm/IcAnkL7sa6HirNJb2EZxCRJkfCNNCzMQlju4tFlOMW7oP0Xeafs1ZNFbc4R0NBxVF6fbEaDcEToig5+JJsfczFr01kK00qMBoCx/oceuSflrWuDZbYBG4LfD16mLjjFFEeXWQZb13Edx3UPrvjvQwJ3KjbXe0LatAF5rXoi1wOsOt2QRzGcnYWzcEbFXB2ltUr+Ugzw0CkLVERb0hP4okb51huvshRxoGhA6B3fj79oPnXldwwnGelklhtI48tNUU3PhNt5ehSDgrd81onNxPDlRCjUlQSkncUs0lI6OspVjHeZ7u5XqSePfsduxPiYzPKktkjgR8+5Un705FGMtxehQ+GfioGi0prE7aKB1M+fl1nSc8pWRA9ikPf+i+ZTPii/Ef64Kj3dDpMIgfV9ujuvVRvpQYyeRetGnWxn/IQAkDwTAwtLKkHMAgJAwUMGzff5EzHa4Re1p+z81jZow7ezaZKOv5s2OqWbRzHLyFWmTsP/JNIlINxZRk0t1CeqWsG65BNLOkSXWc8sk4FluDxy3cgbvl/msXtwbFCh50czyDXE+TvXdYK1tFKQ4q29yIkhFK1i19n5gwGg01U7gVyfSZSLu1WGkJDWj8uMk9/yWdr8ich1AwDETCIdn2648ievVpA00w3SsHy9IzcxaxF8RsfbXRDsMhN8SnczcSUHERwdxu57HK+4I3bEQHS2IQ440bSzyN7B6nQDeWXj3XADiNGraZrUp9JagqLyR0fm00YWdFMPYpACV6wmmeYDlddVNwvNdH8QTFMsoAIoPiwU3eoyECPrA0qwtde6OeYfxYnXkFjHgBC9gW1yF76Q8YpGdEk231ZcsI3pfdC2Y2Hk7Y/nyQpG3S8KSJRQAjwTo/bloxjftKddgPoBx6mXYDxNmtRrwDSJCmI+OqS8iVefBDFuFFPcw9FHAT57RriV0dEdc5FGd6ZlV0Hr7LI8bQxi9kO8cJxzQL+eC+YhQmV0UAtYlvqblpHEN6g1J8uMI+cNQD4VpLr4MVFDN/42Ba3NSmS/36IsiDmuBuRQQkvqAiMHG+XvK1+nTxiU5SgmvC5JhYoxh4oIB9KaslTeV7PpQbpPe9L29z5TPvMZ8FWco811ZUFtdgnNSXG/sclD/ip/VKiuJX+/u11jGgDAS0wRnY3mutxaPLixHcjDnKkY75qIdCrGpZ98HO/sEXxExJqWw2VbWPWTaGY8RjO4P+5uKUyyyQYixWiYEzrd95opNDMCqQXoHSbp71MxjguG0rxctB2TbkuPYi7VqU/FDInXx+K1ulNg+sZkVcG9bU5JdRfv24XwxDJofcwUNHVzMu4Bqgm534WiTQ10oE3FaVicXGIuZulEV8tESKezWOr6CgejGA2vhq85lF/FoFtk9CUkJLNVVReNxffzar/86J5UAED+LqM6mfQtyOpTnhZfwsP+maoKiFSlFOFpBTYXA6H3/JOeBehwLgikgzuK4cz4LPVwWWYcerfPp4SZB7++mEwdLCNwBq0sJ2N98aw2QzSC2kvrFrX4oqJlaQHF6pNd2qQlEoHkTyfPrfX1EzFw70d/WkeZDhF8DE/rfQRiTJ9+HdEh3XHfLz4DUSEYj8qyodDsbh2skBQQvLp0cxuCnrF60gIM0G2JSRFAYxYqjZpwPx830HjaXmgmFsWj7WA8PgUAMfn0gh528tCTnT14h/Z+yEMopw/UybxttPKQZ2IXTrZvAQCh1X6XK1puZtQVra7oz/MkwgJ8dxjqmtGipOELFQ1iGmvC+Xe/B9OEkmzQGlY63dVoHjad1fYkIc8xM9OMA3m3HwL0MjjMW87QzbbZ1h7mqdlZZmbZYA1JdmHlISkMAlmBaCYj2favp8BR5wYJqqik3xgVJE6a1wYJ9WWoLfiWPrkjG5Vv+SvteB3Jxvq1IOPBZ/wI27IPPR0id3u3i5YgizaBS7rSkR7P1tcEyddv4XXtT+vL8CI8xLNbIOm3o7jG6PphD6C6xoKy6oZ9gQ46+jrtSzhmxvkweb9Czce4oqAAk46wft5C1PQNmlbUY3QQ+N5oBEE4wa9RXPfvPwe0zfM5u+3D3s4kv5Bh7cwyP7HK8xCp+eaTy+vxVqdVF1D0HBdgnEHFVCZFS8r5rloK9f9HURSJ2naNpB//yZMzbX/U9LWurbbyXx/8GUS4L3Cu5JB3Sz75wdMIH5jHwNPpA7WkI3dbhNBfGn3fd7UBF9NsHP+T1zTyOIJUHzn5n9mnkg4QeJokTdsSyTttiaTy1CcFJJU7y0C1TM0PzR/yAwe7/2x31g9zWQ79P7XnrmAo6IV6U0KlqyCh69UiLWgevhdDpNCHJeIFkYux/TtN8HPuXwb7T1lhR0MSh0ITQoxVbWAhQSPh3z2KUlOk0KicbSFExPIrvQQww8ZZEIY0jpnXgAkZbf54Uy3AcofD29YNPOWFnpk9IO7pm2V5mGG8t2VNySOMD8qdGBXl2SeZ5bXQxEgEh9bl3WH7BolmKzqmNt8hhH4m2Hro4fXHV+Q8RW6pa7kc6uheDGRUJB5e6Q2Tv0GchdO9Jtqvcbbzsm7/OVBnovuNaLonG0cv9Hz59+HQ8c4yi4KsTfuvz3xBOCRm84eE6oL4ePfXZ74k4tabiUl6SYOW8BuEsies7p54FjWS371vKsbDIjd554nuDojZN43M9PEtuu1Dq/QJzfbwDSPzgIZtSeCnLsPByFfP6h+iuwftFgHUtEEB/hfd4deytPEKNYtEHd7Nbg1Oz8xXer/kb8HJOFZQ06v0rXlo3PTo+xoG0dnvfGQ11UmwOCmMsP09w/II/auHlU7/2ERb2dk2+K6hbIALY7x3op0dH/Cb7X3XSHaG03Nn+OMmZ6V9a7OckSRdX0qv/ldzDAaDwWAwGAwGg8FgMBgMBoPBYDAYDAaDwWAwGAwGg8FgMBgMBoPBYDAYX8j/AZrYPHpjM59iAAAAAElFTkSuQmCC;" parent="1" vertex="1">
          <mxGeometry x="437.61" y="1059.55" width="86.65" height="81.55" as="geometry" />
        </mxCell>
        <mxCell id="aAZRxkTBsION8SIQc230-38" value="" style="outlineConnect=0;dashed=0;verticalLabelPosition=bottom;verticalAlign=top;align=center;html=1;shape=mxgraph.aws3.s3;fillColor=#E05243;gradientColor=none;" parent="1" vertex="1">
          <mxGeometry x="291.56" y="891.45" width="60" height="78.55" as="geometry" />
        </mxCell>
        <mxCell id="aAZRxkTBsION8SIQc230-55" style="edgeStyle=orthogonalEdgeStyle;rounded=0;orthogonalLoop=1;jettySize=auto;html=1;" parent="1" source="aAZRxkTBsION8SIQc230-26" target="aAZRxkTBsION8SIQc230-38" edge="1">
          <mxGeometry relative="1" as="geometry" />
        </mxCell>
        <mxCell id="aAZRxkTBsION8SIQc230-26" value="Archive" style="rounded=0;whiteSpace=wrap;html=1;" parent="1" vertex="1">
          <mxGeometry x="273.54" y="830" width="96.03" height="37.47" as="geometry" />
        </mxCell>
        <mxCell id="aAZRxkTBsION8SIQc230-57" value="Archive" style="rounded=0;whiteSpace=wrap;html=1;" parent="1" vertex="1">
          <mxGeometry x="273.54" y="994.42" width="96.03" height="37.47" as="geometry" />
        </mxCell>
        <mxCell id="aAZRxkTBsION8SIQc230-62" style="edgeStyle=orthogonalEdgeStyle;rounded=0;orthogonalLoop=1;jettySize=auto;html=1;" parent="1" source="aAZRxkTBsION8SIQc230-60" edge="1">
          <mxGeometry relative="1" as="geometry">
            <mxPoint x="430" y="1100.3249999999998" as="targetPoint" />
          </mxGeometry>
        </mxCell>
        <mxCell id="aAZRxkTBsION8SIQc230-60" value="" style="shape=image;imageAspect=0;aspect=fixed;verticalLabelPosition=bottom;verticalAlign=top;image=data:image/jpeg,/9j/4AAQSkZJRgABAQAAAQABAAD/2wCEAAkGBxISEBUSEhMWFhUXFhcbFxcYFxgVFxsdFRoWGhgWGBobHiggGBolGxUYITEhJikrLi46GB81ODMtNygtLisBCgoKDQ0OGg8PFzcdFR03LzcxKyw3MTAxNzI3Ni03KysyLTUrLzc3LS0tLSszLzcvLC4tLzIrLS0rLy0wLjIrN//AABEIALIBGwMBIgACEQEDEQH/xAAcAAEAAgIDAQAAAAAAAAAAAAAABgcFCAEDBAL/xABEEAACAQMBBQYDBQUFBgcAAAABAgMABBESBQYHITETIkFRYXEygZEUI0JSoWJygqLBFTNTkrEIY3PC0fAXNENUstLx/8QAGgEBAQADAQEAAAAAAAAAAAAAAAEDBAUGAv/EACoRAQABBAAEBgEFAQAAAAAAAAABAgMEERMhMfAFEiMyQVFhcYGhwfEU/9oADAMBAAIRAxEAPwC8aUpQKUpQKUpQKUpQKUpQKUpQKUpQKUpQKUpQK6ridUUs7BVHUnkK7KgHEu+OqOAHlgs3qc4X6c/rWHIvcK3NbPjWJv3Yt9Npjs7a8E+eykDEdQOvXGceVe6qR2betBKsqdVOffzB9DVx7Jv1niWVOjD5g+IPqDWDEy+PExPKqGxnYU48xMTumXspSuM1utBzSuM1zQKUpQKUpQKUpQKUpQKUpQKUpQKUpQKUpQKUpQKUpQKUpQKUpQKUpQKVxXzJIFGSQB5k4FB9Gqm35n1X0mPwhV+gGf8AWp1tDe+0iyNes+Sd79elVjcyme4ZvGSQkZ/abln61yfEb1NVMUUzudu14VYrprm5XGo0y+29gmO1t51HJkGv3bmrfQ4+ld+4+31t3ZJWxGwyPHDD/qP6VYktijwdi47pQKR6AY5eVVrLubddqyImVBOHJABHgfPpXzex7lm5TctRvv8At92Mq1kWqrV+dfnv6Sa+3/gXlGjufP4R+vOo9f78XL/BiMegyfqa90G4mhS9xOFUDLaRnA9z/wBKie0Oy7QiANoBwCTlm9fn5VjyL2VEbrny7+I6suLYwqqtW482vmenf7M5u5vDdG6jUyM4dgCpweR6npyx1q06iO5O7fYr20o+8Yd0fkB/5jmpdXQwqLlNv1J5y5fiFy1Xd9KNRH18lKUrcaJSlKBSlKBSlKBSlKBSlKBSlYbeXee1sI+0uJAufhUc3Y+Sr1NBmaVUsvG+LV3LOUr5tIqt8xgjPzqX7n7+2m0CUjLJKBkxSYDEeJXBwwHpQSulKUClKUClKUClKUClKUEP3z3oe3cQw8nIyzHngHpj161A7m9nuG77NIx6Dr9AKn++W67XBEsRHaAYIPRgOnPwNV3dWskTaZFZGHmCPp51ws7jRXPm9n8PR+G/88248muJ876/4zmz9yrqTBYCMftHn/lFSfZW4sMbK7uzspBH4VyOfTr5fSolsfeW7jYKjGQHACMNXyHiKsLZW3A8iwS6VuChdolOoqoIGX5dzJPIHrg+VbGHbxq+dNM7j7701s+7l2+VVURTP13tmMVwa+q+WGeVdVxVa77bydsxgiP3anvEfjI8v2R+tercXdvURcyjkOcanx/bPp5VH96NlfZrlkHwnvIfQk8vl0qdbh7W7a37Nj34sD3Xnp/QYri2PUyp43ujpDv5HpYccD2z1n55pPiuaUrtOAUpSgUpSgUpSgUpSgUpSgUpSgxe8u2Fs7SW5fmI1JA8z0VR7kgfOtZL6+ub+5DSEyzysFUDplj3UUeCjP8AU1f/ABbsXm2RcKgyV7NyPMRSI7foprXawvXhljmiOHjZXQ9RlTkZ9D0+dSVhNtocJNoRQGUGKRgMtEhbX5kKSMOfTlUd3N2LeXdyn2IMroQ3bcwkWMc2bHX9jqefLGa2F3M3ph2jbCWPkw5SRnqjeI9j4HxrM2lnHECsSKgLFiFAUEtzLHHiTQfcAYKocgtgaiBgE+JA8BmuysJvXvPb7Pg7WduZ5Ig5u564Uf16CqL3i4mbQumOmU28fgkXI4/afqf0ojY7Nc1qXFty5DaluptWc5ErHmPnU93I4q3EMix38hlhJwZSB2keehJAGpfPPMU2q96V8xyBgGUgggEEcwQehFRzfbfKDZ0OqQ6pWB7OIfExHifyqPE1USTNM1rRt7iFtC6YlpzEh6RxdxR7n4m9yawttt65RtUd1MGHQiVj/qSKm102ypVOcO+KMjSrbX7A6yFjnwAdRwAsmOXP83tVws2Bk8gKqOa893ZxyrpkRWXyIz9PKqU334q3EszRWL9nCpx2oALyY6lcjur5eJrCbrb1bSmv7WI3s7K9xEGUsMFNYLjp00Bqk6nlKxuOcJXxP2p/Zjpb2IETyo7SS/FIoBACoWzpBy3ryro4Bwl7q9mYksI4gWJySZGkJJJ6n7sfWsLxpude1mX/AA4Yl+Z1Mf0YVm+FW2Idn7LvLyblqnCoPxSFI10oo8e8ze3OvmmmmmNRGofVVVVU7qncrD383vi2dblzhpnDCGPPNmHifJASMn1HnWKj36dYbWZ41YT28ch0nGCw76j2PL5VS9zPebXvs4Mk0pwqj4I0Hh+yijmT4+5xV0R7glbG2txLmSCMqWI5MWOogeSg5x6VjyOJ5J4XuZcbhcSON7Xj3n25bXkAIykqc1DDqD8S5H/fKsJuztU21wr/AIT3XHofH5HnXdtDdS7i5mPWPNO9+nWsfa7MmkcIsblicfCRj3J6Vw7ld/ixXNOq/wBOr0VqjHizNFNe6J/PRdSMCAR0PT51915tnQdnDHGeqIi/5VA/pXpr0UdOby063yKUpVQpSlApSlApSlApSlApSlBwygjBGQeoqgOJ24BsX+0Wyk2rHvKOZhY55f8AD8j4dKvW82nDEyJJKiNIwVFZgCxPQKOp6V3zwq6lHUMrDBUjIIPUEHqKg1W3c29PY3C3EDd4cmU/BIvijf0Ph9QdlN2d4ob21W5iOFIOoHqjL8St7eda+8Q92l2ffNDGcxMokj81DFhoPsVPPyIrO8NNoNFs7a5/AsCtjn8TrKhPl0C0VG99t432hevNklNWiBOuFBwuB+Zjz+Yq2txOF1vbxrLeIs05GdLDMcefwqp5E+ZPrVObn6F2hZ9p8AuIs5/eGkn+LTW1VBiNpbr2U8ZjltomUj8igj1UgZU+orXjfzdn+zr1oAS0ZUPET10tyKt5kEEevKtn6164z7USfaZSMgiGNUYg5Go5cgewYCkkJ9ws3iC7EaSduVp2ik+OhBqQc+p0kD6VTO09o3G0LvtHy80zqqJk4XUcJGPJRnmfc1O9nWrxbpzvg/fyav4C6qD7ELmo3wuaMbXtu0x8TBc/nKtpx60Fvbm8NbSzjVpUWe4x3pHUMAT4RqchQOnmcZrObZ3RsrqMxy28eD0ZVCup54KsOYPOs5XFVGqG8OyWtLqa1Y5MTlQ3QkcirehKkHlVxJt+STdR52c9qLd4i+eZYEx5z+YjB+dV1xXlDbZuseHZL8xFHn/WpFtBxFujbr4zyr+srOf5UqKhm4+xlu9oW9u4zGWy46ZVFLFeXngD51sLs/czZ8Eiyw2kKSJzVlXDDkRyPsTVN8E7TXtQN/hwyN9dK/8AMa2CJxSCWsXES5Mm1rxj4TFB7Rqqf8tYGa4cxohYlI9ZRfAFzliB5kjrXdtmfXcTyE51TSnPoXbB+mKle+G5jW9hZXsYyrQRC4wMYdgCkp9G1aT5YX5BanCrd21t7JJoWErzqGebGCf92B+FVORjzBzU2qhOEG+ItJ/skzYgmYaCTyjkPL2CvyHhzx51fYNEMVxivqlUcYrmlKBSlKBSlKBSlKBSlKBSlKBWN3iE5tZvsraZ+zbsyQG7wGRyPWslSg1HuL+aSTtpJZGlyDrdjrUr7/DgjoKs+w41yrFpmtA8oGNayaFPqV0kj5VI98eFEF3K08En2eVubjSGiY/mK8ireoPOorHwTus967hA8xG+foWqKgm8W257+6M8ozI+lERcnABOmNPE82PuSasPaW777M3bmWTAmuJI+0APTWyL2efHSo5+xqZbncNLSxYSkmecdJJAMLn8ijkp9eZ9awvH25xZW8YPN7gEjzCRyH/5FaCjz/34f/lWdu1xhmhjEd1D2+kYEitocjw1Agg+HOsfwn3Tg2gbtbhSVVIgjKcMrMzksp88KOvmazt3wRbP3N73f95F3vqpAP0FB4N5eMFxPGY7WL7PqGDIW1yc/wAowAp9edRTcndKbaVwI1yIgczTdcDqVB8ZGz8s597I2PwVhVg11cvIPyRqIlPu2S2PQYqy9lbKgtohFbxLFGOiqABz6n1PrQePa2wIprB7JRojaLs1x0XAwpHsQD8q1ivrKe0nMUoMc8TA8jzBByrqfI4BBrbWo3vduVa7RUdspWRRhZUwJB6ZIwy+hyKCu9i8aXWMLc23aOB8cbhdXqykcj7GvqPibc7QvbW1t4hBG9xHrOrXIyq2t1zgBQVQ58etfM/BKXV93eqV/biOr56WxUh3P4Ux2dwlzJcPLJGSUAUIgJVlyRzLcmPiKCnN8bntdoXci/inkx/CdGP5anXFKMwbJ2VakYIUE+eYoQpz85TWcl4LxNIZDeS5Z2cjs0xlm1EfqakW/O4K7SaItcPEIlYKqqrAlyuWOf3QKCDf7P8Ab5uLuTHSOFQf3mkJH8q/pVubduhFazyt8KRSMfZVJ/pWF3E3MTZkcqJK0vaOGLMoUjCgY5cj0z86zW3tm/abWa3LFBNG8ZYDJAcFSQD44JojU+yj1GND+JkU+eWIB+eTW2MmyontvsrqGiMfZlT0K6dOPpVd7P4MwxTxS/a5G7ORH0mNMNoYNpOPA4xVpUVqxvju69hdvbPzX4om6a4yeR9x0PqPWrc4O75/aYfsc7ZnhUaGJyZIxyB59WXkD58j41I9+dyodpxoHYxvG2VkUAsAfiTn1U8voDUY2TwhFtPHPDfzLJG2QdCYPmpA6qRkEetBZ9K4Fc1UKUpQKUpQKUpQKUpQKUpQKUpQKUpQKUpQKq3jPsK9u3tha27SqgcsVZBgtpAHeYeAq0qUFdcGd3rizguPtMJieSUEBipJVUUA90kdc1YtKUClKUClKUClKUClKUClKUClKUClKUClKUClKxS7yWZn+zC5iM3+HrGrPTHv6daDK0pSgUpSgUpSgUpSgUpSgUpSg+JpVRSzEKoGSScAAeJPhVd7Z4w2MRKwLJcEHqoCx/Jm+IeoBHOo9x33gcyR2CEhNIklAyNRJIRT5ryJx7VitwuGibQtPtMly0eWdVVFVsaDpy+rzxnAxyIqKs3dHiJZ379khaObGezkGM+ehhyb261Kr25WKN5G+FFZm9lBJ/QVRWwOFV616yyMYYoJAROuNTkEFTCPPHUnkOnOrH4tbR7DZEwz3pNMQ54J7Q4J5eOkMfkaDo2HxTs7ueK3ijuNcpwMooA5E5Pe5DAqditZOHW3ILG+FzcCQosUgURgMdTlAMgkctOv9K2F3Z27HfWy3MKuI3LBdYAY6GKE4BP4lP0oSy1KiO8vEWwsnMUkhklHWOJdbL+8fhX2JzXt3O3sj2jHJJFHIio+nL6QScAnABPmKqJDSsbt3b1tZxdrcyrGvhnqxHgqjmx9AKgl5xpslP3UM8nPrpWMe41HP6UFm0qFbt8TrC8kEIZ4ZWxpWUBQxP4VcEqT6Zz6VNaBSvPf30cEbSzOsaKMszEKo9yar3avGWyjJWCOWfBxqAEaH2LcyPXFBZVKrHZXGe0dtNxDLCCQNfKRBnxbTzA+VWPZ3ccsayROro4BVlOVIPiCOtB30rg1Fd5+INjYt2csheXxjiGth+94J8yKCV0qtbLjNYs+mSOaJScayoZR6tpJIHyNSPbm/uz7WNJJJw3aLqjWP7x3BGQQF6A+ZwOdBJ6VWcXGiyL4aG4VPzaVb5lQ2fpmp/sjakN1Cs8Dh42HJh+oI6gjoQeYoMRxFecbLuTba+17PlozrAJGsrjnqC6unOtf9zd357u8iSGNsJKjSOVIVAjhmLE/i7pGOuTWwW+G+Fvs1Y2uNZ7RmChAGbujJOCRyGRz9RXzufvdb7RWRrdJFWNgGLqq5ZhnAwxycYPzqKklK6bq6SJDJI6oijLMxCqB6k9Kgm0OL+zY2KoZZsZ70cfc5eTOV1D1GRVRYNKr/ZnF7Z0rhXMsOfxSJ3AfIspIX3OBU+ikDAMpBBAIIOQQehB8RQfVKVF959/rCxbRNKWk/wAKMdo4/eA5L8yKCUUqqG42wasC0l0+epM++M/1qZ7qb7We0MiByHXm0bjRIB+bHiPUZpsSSlKUClKUFP8AHTdp20bQjXIRezmx1CgkpJ+6CSD+8KhXD3fR9mzHUC9vIR2qDmQf8RPUDqPGtkpIwwKsAQRgg8wQfA1QXFPcNbBluLfP2d20lOvZsckAH8hxgeR5eNRV82V2k0ayxsGR1DKw6EGql4/7Q/8AK22fF5SMeQKLz/jblXHALashNxaE5jRVkQflLsQwHocZ+tQzirtXt9q3B56YsRLzz/djLEe7MaDLbh8NRtG0+0tcGPMjqoCBuSHBOSfPNTHiBts7I2bBZWpAldSgcDBVFH3koH5ix5erZqY7kbM+zbOtoeeViBOeup8u38zGqS4ybU7basi57sEaR9cjJXtHI8vjUH9yg8u4W4c20izBxHAhIeQ95mbqVUZ5nnkk/rVtwpBu/sptTmXDsVyArSSSElUAHTp18ACayfDbZn2bZVrGRhuz1uD11SkyN+r4+VVpx42kXu4bbPdjj7QjP4pCVGR5hV/mNBEoYr/bd8TyeYjvHmsUKfrpX6lj+lgW/BOIR5mvZA+nmURFQY6nvAkj5ivbuVf22ydgpeSKzGY620KCzM5KomegAAAyahm0d4Np7emNtCmmLlqjQns1Bx3p5Pxfu4+R60EN23aJDPLEsySojYWVD3W6cx5EE45eI5VsTuZtqRdjx3N/qjaONzIzrglYy2H04zkqAcY514tyeGltY4lkxPcD8bAaE/4S/h9zk1i+PO0WSyhgU/30vf65KxqW+mrTnNBWm9u81zte7VQpKF9NtAOvPkGbzcgZJPw+nOphsbgtK8Ya6uBG5/BGofHoWPU9Og/604BbNRprm5bmyKkaegfUzn3OlR9aumg1p393Jl2ZImX7SKTISTGkhlAJRx0B6keeD5VNuAW1mIuLM/AmiVPTtCwce2QD8zXr/wBoC4AtbWLnqadnHliOJ1b9ZVrG/wCz/afe3k2eQWKPHuXY/wBPrQSvi1vc1jbLHCcTz6gjddCrjXJjz7wA9T6VU24m5M21HkYPoiRvvJW7zM7d4hR4tggknzHy9/GfaPa7VZM92CNE65GWGtseXxKP4atbhNs/sdkW+QQ0imUg9fvSWH8pFBTfELcttmSRDtRKkofSdOlgY9GQRkgg6xg+hry7j7nS7SmZIyI400mWQjIGonCqPxMQDy8KlPHjaAe+ghB/uYWJGOhmYePtEP1qbcFNnCLZayYGZ5HcnGMgHQufPkv60FacQeHzbNSOVZe1jdtJyoVlbBI8eYIB+lSX/Z/vH13kHMxgRSDyVm1q31Cr/lpx/wBo961th0+8lbn5YRRj+JjWU4C7NCWc9wes0ukHP4YAVH87SfWgi/HTaPabQihzyhh/mmIJ/SNKnXBjZ4h2Usp0jtneUnpy+Fcn0Vapbeu7e72jcyICWkndYxnV8LdnGB6HSD86u/fiT+z9gNFGSNMEduh5ZGoLGCfkc0FTcQd75dp3PZx6jbq+mCMDJkOcCQj8RJ+EeANSfYnBiWSIPdXHZOcHs0UPpBHRmJwT7cqw3BXZYl2mJCuVgjZx5Bm7iH6F/oK2EoNY9+t0ZNmXCxs4kSQM0TgYJCkBgw8GGoehzVo8CdpvJYyQucrBLpj8wrKrhfYEnFRfj1eBr23hH/pwsx95mGB9Iv1qWcE7EQ7LadsjtZZHOemlO4CPTCZoOjixv+9ofsdo2JyoaSTGezVvhC+Gs4Pnge9V5uTw/udo5myI4Cx1SvlmdvxaF/Fz6sT9aj15O15du7t3rifJOegkfAwT+VcAewraqwtEhiSKMYRFCqBgclGB0oKc23wYljhL21x2sg59m6hNQ8QrAnDeWeXt1qttj7UezuY7lQdUL5I8cDlIh9Suoe9bZSOACT4DP0rU2ZPtV2wUY+0XDafQTynH0D5+VBtmDXNcAVzVQqJcT9rXdps9p7QLqV17RiurRGchnUdMg6evIDJ8KltfEsYZSrAEEEEEZBB6gig103M4gz2dzJNOZLhJgO0BbL5X4WTJ0jkcY5Dp0xXu4h8Sv7QgFvFC0UWoNIZCpZtHNRhSQBnnnPgKnG0eDdi7lopJYQfwKVZR+7qBIHpXr2FwnsLeQSNrnYHK9qQVHrpUAE+9RWN4I7tPBBJdyqVafSEU5B7NckMQemSSfpVN7wwst3dKwwwuJsg+sjEZ+RBrbIConvfw+s9oMJJA0cwGO0jIBI8AwIIbHhnpmmh5txt/Yr6GUmF4vs0amVm0lOjE6CDk8kJ5gdRVC2yNfXqry1XNx4g4+9fJ5dcBSfpWwGw9wYrWyuLSOaXFxnXIdAcZUJ3cDHwjyrH7tcK7ezuo7lZ5XaMkqrCPGSpXPJc9CaCexoFUKBgAAAeQHICqP477KdLyK6x93LGI8+Txl2AI8Mqx/wAtXnXk2ps2K5iaGdBJG3xK3Q1UUFutvxFHZPs6/hea2bIQxkB1DHJU5I5A8wQcjpWcu+K0EFv9n2XZ9jgEKzhVVc/iCKSWPj3sVmNocFbckmC5lQZ+FtMmB5AkZPzNe3Y/B2xiYNM8k+MHSxCJn1CAFh6E+FRWK4N7b2ncO4lYzWoLEyyfEHJJKxsPjGTzHRegx0r28d9kvJZxXCDIgkJk9EdcFvYNpzVlW1ukaBI1CoowqqAAB5ACvqWMMCrAEEEEHmCD1B9KI1l3G3ul2bOZEUPHIFEsZOMhScMp8GGT6HNWR/41QthY7SbtGKqoZowmpyFGWDE4yeuK9O2uDdpIxa3kkgz+AYeMfuhhlR6A1zu1wigt5o55Z3leNw6rhVTK81yMZOD60VDeN+0u02gkX+DCucHIDSnUR6EBV+oqweDtj2GyEkbI7UvKc4+E/CeX7Cg15du8JILq5muHuZg0rFmCiPA5BQB3c8gBU1bZCC0NpETEnYmJSmNSArpBXPLI60Gs08hvtokjB+03YA8ARLKFU+2gitpbaBY0VFGFVQoHkFGAPoKgW7fCi2s7qK5WeVzESVVhGFyVZeeFzyDGp/KmVIBxkEZ8s+NBrBvxevd7TuWTJLTdnGDj8GIlHsWGfnWyW7+zxbWkEAziKKNOfXuKBzx48qhGyuENtDcRz9vK/ZyB9LCPSSDkZwoPXnVjURrZxW2n2+1rgjmItMS4/wB2O8MeetmHyq2tnH+zd3AxwHjtNZ5cjJIuQD/G4FeB+D9u1wZ2uZ2JlMrAiPmS+sgnTnGamG9m7639q1s8jxqxUkpjPdIOOYIxkCitf+GOze32rbIcEITI2fERLkfPWUqe8ftp4S2tgRlmeRh44QBV/Vj9KlW5fD2HZ0zzJLJIzJp74QADOcjSBz5V1748Ooto3AnkuJUKoECqEKgAkkjUpOST+lBgeAezdNtcXBxmSUID46YlGQf4marTrGbs7ESytY7aNiyoD3mxqOSSScADxrJSLkEA4yOvl61UawcRNqfaNpXUo5gSMiYBGRF3B+oNbDbB2KIdmxWnTTbqjEeZTDkZ82JNRGw4P28c6TG5mcrIHIIjwxDaueF8TVkYqK1GvLN7eV4XBSSFyp8wUPJh6cgQehyKtjYnGoLEq3dtI8g5F4imlvXSzAqfMdKnm9e41ntAhpkIkAwJUOl8c8A+DDn0IqJf+Cdt/wC6nx7R/wD1oONpcSvtOy76eOExqhSFNbDUzzYB+HIGlW1dTUD4R7M7basBwdMIaRiOg0qVTP8AEw+ldvECW1tkTZdizPHHI0twxbVqmKqgXPQ6VXmMYGR6gTTgPsMpDLeuuO1ISIkcyidWHoXJ99IoLXpSlVClKUClKUClKUClKUClKUClKUClKUClKUClKUClKUClKUClKUClKUClKUCuDXNKDXXbXEi/W+ujb3WmPt3CphJFCodAI1rkA6NWOXWsTtDfjaV0DC93I4OcpGEUn0xEoYj0rY293ftJjmW2hc+bRqT/AKV6LPZkEX91FGn7qKv+gqaXaktx+FE07CS9VoYB0izplf0P+Gnn+I+lXpbwLGioihVUAKoGAAOQAHlXZSqhSlKBSlKBSlKBSlKBSlKBSlKBSlKBSlKBSlKBSlKBSlKBSlKBSlKBSlKBSlKBSlKBSlKBSlKBSlKD/9k=;" parent="1" vertex="1">
          <mxGeometry x="279.53000000000003" y="1074.57" width="84.05" height="52.87" as="geometry" />
        </mxCell>
        <mxCell id="aAZRxkTBsION8SIQc230-64" style="edgeStyle=orthogonalEdgeStyle;rounded=0;orthogonalLoop=1;jettySize=auto;html=1;" parent="1" source="aAZRxkTBsION8SIQc230-63" target="aAZRxkTBsION8SIQc230-60" edge="1">
          <mxGeometry relative="1" as="geometry" />
        </mxCell>
        <mxCell id="aAZRxkTBsION8SIQc230-63" value="" style="shape=image;imageAspect=0;aspect=fixed;verticalLabelPosition=bottom;verticalAlign=top;image=data:image/png,iVBORw0KGgoAAAANSUhEUgAAANwAAADmCAMAAACJZRt4AAAAjVBMVEX///8jHyAAAAAQCQsIAAAaFRYdGRocFxggHB2wr7DIx8hhX19VU1QWEBF7enqUk5PW1dVJR0fBwMDd3d0SCw339/ehoKDw8PD5+fkLAAPr6+vPzs5DQEG4t7cyLi91c3SJiIg5NTYoJCWCgYFaV1iYl5dta2ynpaY7ODlnZWazsrJOS0xeW1wzMDDk5OPMiNisAAAPmElEQVR4nO1daXuyOhAtgUBUcANFwAV3ra3//+ddUTJZCN6ivjX04XwrUpNjkslsmXx8NGjQoEGDBg0aNGjQ4B2Ih9tFp7PYDsN39+TlmLkImR7GnomQO3x3b16K4TdyDABG0/a7e/QyTBbINgQ4aP3uTr0I4TQyCrA2f2LphUuvyM0wgtPk3T17HpOBkpthmO67u/Y8UkvNzTDQ9t19exZ9xEnJ6LIdYPiToPO7e/ckXCCD0W4/nI03THJ6i3f37jmwgbM2+Tj5y4AOnVfvoetSaWJxG1uHsovqveoMks/ADvdwNM3VFafWArNv0jESJmA7l6AEx+/q2QswRGrRMc2FCuq/p18vwThXvKyW+HydL0Xr8z39egnSQD1CrXxeRvv39Osl+F9y4/f06yXY5gIFSeZpz1RP11phlguUIBWfb3K9BSVv6dZrkFCZvxLsG9/Ltz+rzlvBxM5ZRD3+8S4Xls6g1jbdkerN/KobU4XTTN/WsVegTXkQC6R+Csp0pNzDQz9Jkn4ddOo5NXBINGj5o7A/XoJHBStUy3DvrgKEkEUOa+2lzZAZq451AYqYI6yofMVdFOHbMiV2gJa6ewCPgVGCqCu/u4/El23U0VucxnNbzQ0vJVE5WSAiv+St9J6b/aDQ5eskNSSRMXEV7k3DjvSemn3elQ5DQnzptS+z+JaRuZHkF/XCeRkRuccn2eGcIiW3y9itNPdNp9jk6JGIFJwnCefeJA7G3OtmQfBohnO6QrmygtF3rygDmQuQWNjddb4Rc3Ba2tvrYbtz7S7eJaPip6DJGJ6xz6bhKPlij2rg39xfpaFs2t1AVWkjcGGF7YEd0nu3y3BzqKCZ4qMR5YFP3NM9XYeW/t6IO+RASbOEzY/aFPj4S118HHfIUXeEJwpGP+dM7N/p4RO4Q44OEZLUEeqwRgoZpBfukAMnrURiR0lrb93dIXeg5KTn1HmruQr2AVvBXxy5kX8LZwVbRUePJa6+OV1zWjuS2ot5lE8xE09TeZZRJ63k3zzXQVq25shjmjCxTXQSh4juc8QSLACqt2i8z/UPcgJRlkLU4WdnTDdxIUg5g61dW6/7tkjtSsNjPZ4xV0S0AJkyg9HW1TE92ZUZoQSlt1f6Xzx9czq7Sg+/CxautlaB0jGSA2XK1mTNpaZksK35V3c39Vjika723EbtGKHs1h8z0yz4jwj2MDeWkaYZft3S3KgbgiXz5il9ZBc4Bz0Vy5m43mwvCLDIAf5yoqk6AY5EeqpeoeCPNdFhkaa7y5anYHDZ+CYD1RS2dY1Pppww8VCPpkd1EZYYBNeNbHIsepyDlabCJOYmpXXkFs7ZFcYIW91cddx7oncao52e640pjBk3yU/Z5cbU3rDBidcE0SiPY1onfV3pTHZYPfkzFvuxp8IH8f44RxkcN9V0RmZIYFYqgoyTFWVOsGwCjeJ+kpz19qFvYVaq7GgWlNRXK76DAd0HcEf1MTW+ZY9XPQATT+1jhoGtY9Ll2QFySnEOCcLkW1dxXw6fKiLEUH4eU2FKiN6yQwVIkpVkPUVInT9GoKkpegf/S46uSeLVjxyblo7y8xgS8I36TcuYgEBRdh72eFtTe+0uYE0pfcwfPTpy6m1Qc3xRw8Y5KT6dMHmS/nbPXoA9aP4qe5OLCdfxBKsP3benBVd/CD5JspKEZdhv9dJ03NY79rEEJ0Mxk+SEGXNB3gwvFo9lBkGEvNNY4z2ixSxxS2Q32XDZebbBwvnDAwIrkDgW7ukb3eG8ddGUM3vac8FHRND8tijDjuR5J5G+SXvc0BkOWiTZ/JuEw00heGCj3WWF+auiX8xG2mZpnHg3l4cM93gceAXf1/VDvO1jRXLfRZjqemjE9wRnFrExtkXvHfAhplficlbrABpgXxbiyWF2VLmYIvQ9/Nm7y+6yoPyBIjLpmSbndlclseuB0hzRTEpel1NrLka5PNNdj3vHFUtA1VeHKQmsZpn4+cnAMLU4GWMdb+7KcBuAh2nzxv7fR3uljNGhA/O5+h1gh5j/NmFGk56BngyjLpIlITGRoHxAWCHgVRkw+bQ+Q3heEMRipbaHVqlowNKTkJLVTrOjNPf+hZ/HA/WZTBdD2famLEwxYAJJNtHv9fQxTG4HWCOV99zNdzv5dA+kR2nvibj5mJVyfVmStQeJbfpKlBx3yMEISc/rk5J4h1xZSiL1w+ifnn6HXFkacFQyovrhDjlI4N4Jj+lRCjL/nR4+gTvk4ECIuLhOuRCtQQjvDrkJzWJwltyqg9pM2pp0DHfIsYo33pRabxMwKIih+zaXpDeR6Jy2CrnOahVhnPrhZHRusTpvUfrrva2E1gBRC8YxrU1x9OCk0kWptpaDg2eBLkpsrTcC2dzG6EuO/Jz5jDdi869r6yK6olV0lHimnBzUKjPZA62jQFtVt0lBApY4JLDW+QAlQ0IseezWqheDg84LLpFPGgO7QqB/X5y+xcWpFb452UAI4ZgWXXb9pSB4iKmvM/2KHsty9qLV8tvgPF0KxePzYJnYzn4E27NIqvNyu6gZkPxKzEUyuR46hkeOKomj3/s6rAzj+9QtOCN0A5ypJRjkRwuS7WULJ8coPsdaL7UctGSg4B2BpPUaaPt3EFOHJRLcQuvcfLOnus+8e6B2mn0QHsdw0FbXAM5PQJecKSU5d0rcCrUC1NqTzADqVqh1lURwzUnO1s98RGtQl6AcMHJSUsK+pO5lrUCLd8p1LKlXQd+w4g9AE+ylzLwJHHqvs7T0adxRXHQzGrGa10ERKQUNAghqZEyfanxE+ieAw0rBBiKp4RRKJ+rvj7wHdszMW7av9CYzj3Ij8zprXxcswGVno+l6u+1+sxOANa8ufhk67jCx7Zl8EpRUi7WOKHXZ1btabo6y49T1v2giw1HJ7q9cXqOoW0lQ4aRnXbEPpBxY06uzUikhXiCTppESx0Lrmm9wEuLtASMUWciyB/taa5RqnJPZfj9LdPb9N2jQoEGDBg0aNGjQ4K0YhbHff481FPo5/knsYtROv+YeQnnYZ0Qb+6WU+z3K8S/O1Wy/UYCz7KKc3JA2tvwHjSlAzxL9gzoR/hIyR3NykCgweHljSvw7cv2I5bP9NXJCLcW/Rk64/PiPkRuxSAmTln+FHKtLh7p9Gvb5K+RoqoqQHvZXyA3oVcB8MZ+/Qo5WrRPybf4KOTiMxOe4/RVycLiMz1TRn9z5c7vobI7rcXIv9q08OVedXHxp7LjprMftRwJIanJhDyBGgf3eAVmmhzH2IkTWt2H5pO/edrN99l9wtqybfZBf06AmN2GN9QQK5+0AIdqYt7g1NqSv/iDZRU3OReYNlhC+93emyZ8nCKxFZqjt8rfzsOog+xNe8q6f3NvEj7QxU0iIi7sep50axEO7LJKU0sZ+UDNfSW5Hz7gRgdtWjqQahpkVUaJJKXni7KlYb+MeOXYcRuC2twtXE3rOkNW7+0mWuIpcqmwudIsx8KxS//A5cmPWGLdrqMp2Z79161lyW2Vz8XdJhXfT7z5BjuWz8OfpwmnZZYrJ9ilyn+rm5qrqUBmcE61G8AC5tgUnLVLW2KSkVH6W1d/FT5Bjx6uEtItBWXMXditDIDcwPe4+Ceci7HAZOR/WlVD8rVN+1wP8cI+QO7NDK3y6DG+dES/3hMgrPieX7haLBZVzzuZ4wVeiJBdCXyM+RXPMp17hvDH55ooHyMVQvMXiT+UnXHNBsBtmrrKwna7EQ3T8MYOfbOKjJZ3qJu+eOnM8vOg4uzaWbOeW0Fh1ciwh1Pzi3+LupURrLm9hTPiVqCRXrn5NXNjpT7yyw51Qtnacx7El1PKrTG7SoWUOA5dvjt1LaWNRMTjzS78iuQXdTT2hXCQroEkCMfs95O9dqUxuYSmbY78l8eR8w9GUjV01crB5O3Mhh2UNdSSjgoblsp+yKrm0pLlQufHliKHeeDVyIDVIJDq7YWnJVz18ZFcGPCotoTmbxMp3DE+Vds7ueqlCDnZT+ZJjWAJK04FJtkrkjtBJO5Bc+VA+Qn3dDK0AUoGc26YSkZjSRIfEd3XGLa0fU4kcWdLDbySQv5VWDC+pHwcD+2NyxhyKkEdyEiN1vtjfysbgK6qQg1qqxCrkTMKVauqTYzHNSvw5OWituIjhy9TpxKMleYAcRVAQUSCby47o0DpKFcjRxgrFJ2JwCZbkgR8f0C1Ze6n8CizisnpIkuJcgVzxljZ2TKjEr5A+YBUYrHahPC2hHhIp+Y5UNHl+QI5AbEs+RtiHnb3EQ0OPt1UhZ7t0chFDyguFmxtXZeSCiuTIlEpYgiUBTMkR54Xk8BFmnycFWeEDq+Q7Kk9L++TTIjBYKgfApmUJuUem5WUTh0KxUv48EyglYftDVYFy2Z+h5m4kdhIucygrVdd50FgdwBkxQVLBreAlpzWrbwWZ8nEEsSiKZ6zywzOE3w9sBRm5Mz1uZItHF6n2WHID5WflTTwjF0LOvljzmC79Eo3hoU38ahWAtyYQ6sfRrYVg5bx0q6tfmdoIETyxgAqLfSnz3XePqF83YxVuIRNENBVQhRP9V7AwY0V7bg3X3fNfy8pXqOYJKyT2gCUOJgW/ns+wPQXF69XgiHF1S5zV5uBCQbDClUUQBuCDfsCHwgwOvoIhTDxnWZiYO2YdVyT30QfTgL/mBvR+e1VQ97hzbY94v9YwBblZwTyn3lRaCV1Oo6pKjrl/vU3xpUuflhI7vszWQ35LmGWI2QAjdnUGXvH7gS/clFuZHHM88f5fsA8NTPj94Nzh9eCHyLFryGz2u3Fl7ol1muWTqL3zBDd0dXIxjQgQ7i7gIdcYGrTyqZJ0seAXfsydDt4GzNn5/P0LjoVW7tFdIrkCd3VyTDY6XAW3HXfVyKUx4h43h0JjDwZCvugvZKXw7Cw6fImDHa7c4ePkPhZUHnFrXLylNrvsgTUGPuoHyZ1V1g83VySQlfuAbglElrAfsPWVqOJXOTb2U+TYXOFVklZZg6jVrWrP8Y6tNhiUnItvWNpY77kQ1gc36XkRPVNfjYEWcvCxGjkWY3G4ck1tSxkxszpPR1Y53yd/6ts/WIXf085iQc+RY0XEeOvnfCo2RtCuYtgYOVeIgY8E4dtjLOhAPcMSlrptrTJ7ZRHdXubtQPoFErnbQ0+4RevMGuOtn/FKnCokut7RlObfEf2A3HDgXnES392e3Px5R7hdYTtFkZcZK4RgEx221zWZ5i+fOG07/1p3wNucCX0qFq1u0cbcDa/dheMBsjyHNjbvXXe8MW3sFSfSJWt/4o8XA8NE3vex1//nFSb8ffeUNTbv9JK/dUy7QYMGDRo0aNCgQYMGDRo0aNDgTfgPZn7wJt53kBMAAAAASUVORK5CYII=;" parent="1" vertex="1">
          <mxGeometry x="150" y="1065.11" width="67.39" height="70.44" as="geometry" />
        </mxCell>
        <mxCell id="aAZRxkTBsION8SIQc230-67" style="edgeStyle=orthogonalEdgeStyle;rounded=0;orthogonalLoop=1;jettySize=auto;html=1;entryX=0.5;entryY=1;entryDx=0;entryDy=0;entryPerimeter=0;" parent="1" source="aAZRxkTBsION8SIQc230-57" target="aAZRxkTBsION8SIQc230-38" edge="1">
          <mxGeometry relative="1" as="geometry" />
        </mxCell>
        <mxCell id="2dKdWCBImw4KJ0Op0K_v-3" style="edgeStyle=orthogonalEdgeStyle;rounded=0;orthogonalLoop=1;jettySize=auto;html=1;entryX=0.5;entryY=1;entryDx=0;entryDy=0;" edge="1" parent="1" source="2dKdWCBImw4KJ0Op0K_v-1" target="aAZRxkTBsION8SIQc230-33">
          <mxGeometry relative="1" as="geometry" />
        </mxCell>
        <mxCell id="2dKdWCBImw4KJ0Op0K_v-1" value="" style="shape=image;imageAspect=0;aspect=fixed;verticalLabelPosition=bottom;verticalAlign=top;image=data:image/jpeg,/9j/4AAQSkZJRgABAQAAAQABAAD/2wCEAAkGBxISEBUSEhMWFhUXFhcbFxcYFxgVFxsdFRoWGhgWGBobHiggGBolGxUYITEhJikrLi46GB81ODMtNygtLisBCgoKDQ0OGg8PFzcdFR03LzcxKyw3MTAxNzI3Ni03KysyLTUrLzc3LS0tLSszLzcvLC4tLzIrLS0rLy0wLjIrN//AABEIALIBGwMBIgACEQEDEQH/xAAcAAEAAgIDAQAAAAAAAAAAAAAABgcFCAEDBAL/xABEEAACAQMBBQYDBQUFBgcAAAABAgMABBESBQYHITETIkFRYXEygZEUI0JSoWJygqLBFTNTkrEIY3PC0fAXNENUstLx/8QAGgEBAQADAQEAAAAAAAAAAAAAAAEDBAUGAv/EACoRAQABBAAEBgEFAQAAAAAAAAABAgMEERMhMfAFEiMyQVFhcYGhwfEU/9oADAMBAAIRAxEAPwC8aUpQKUpQKUpQKUpQKUpQKUpQKUpQKUpQKUpQK6ridUUs7BVHUnkK7KgHEu+OqOAHlgs3qc4X6c/rWHIvcK3NbPjWJv3Yt9Npjs7a8E+eykDEdQOvXGceVe6qR2betBKsqdVOffzB9DVx7Jv1niWVOjD5g+IPqDWDEy+PExPKqGxnYU48xMTumXspSuM1utBzSuM1zQKUpQKUpQKUpQKUpQKUpQKUpQKUpQKUpQKUpQKUpQKUpQKUpQKUpQKVxXzJIFGSQB5k4FB9Gqm35n1X0mPwhV+gGf8AWp1tDe+0iyNes+Sd79elVjcyme4ZvGSQkZ/abln61yfEb1NVMUUzudu14VYrprm5XGo0y+29gmO1t51HJkGv3bmrfQ4+ld+4+31t3ZJWxGwyPHDD/qP6VYktijwdi47pQKR6AY5eVVrLubddqyImVBOHJABHgfPpXzex7lm5TctRvv8At92Mq1kWqrV+dfnv6Sa+3/gXlGjufP4R+vOo9f78XL/BiMegyfqa90G4mhS9xOFUDLaRnA9z/wBKie0Oy7QiANoBwCTlm9fn5VjyL2VEbrny7+I6suLYwqqtW482vmenf7M5u5vDdG6jUyM4dgCpweR6npyx1q06iO5O7fYr20o+8Yd0fkB/5jmpdXQwqLlNv1J5y5fiFy1Xd9KNRH18lKUrcaJSlKBSlKBSlKBSlKBSlKBSlYbeXee1sI+0uJAufhUc3Y+Sr1NBmaVUsvG+LV3LOUr5tIqt8xgjPzqX7n7+2m0CUjLJKBkxSYDEeJXBwwHpQSulKUClKUClKUClKUClKUEP3z3oe3cQw8nIyzHngHpj161A7m9nuG77NIx6Dr9AKn++W67XBEsRHaAYIPRgOnPwNV3dWskTaZFZGHmCPp51ws7jRXPm9n8PR+G/88248muJ876/4zmz9yrqTBYCMftHn/lFSfZW4sMbK7uzspBH4VyOfTr5fSolsfeW7jYKjGQHACMNXyHiKsLZW3A8iwS6VuChdolOoqoIGX5dzJPIHrg+VbGHbxq+dNM7j7701s+7l2+VVURTP13tmMVwa+q+WGeVdVxVa77bydsxgiP3anvEfjI8v2R+tercXdvURcyjkOcanx/bPp5VH96NlfZrlkHwnvIfQk8vl0qdbh7W7a37Nj34sD3Xnp/QYri2PUyp43ujpDv5HpYccD2z1n55pPiuaUrtOAUpSgUpSgUpSgUpSgUpSgUpSgxe8u2Fs7SW5fmI1JA8z0VR7kgfOtZL6+ub+5DSEyzysFUDplj3UUeCjP8AU1f/ABbsXm2RcKgyV7NyPMRSI7foprXawvXhljmiOHjZXQ9RlTkZ9D0+dSVhNtocJNoRQGUGKRgMtEhbX5kKSMOfTlUd3N2LeXdyn2IMroQ3bcwkWMc2bHX9jqefLGa2F3M3ph2jbCWPkw5SRnqjeI9j4HxrM2lnHECsSKgLFiFAUEtzLHHiTQfcAYKocgtgaiBgE+JA8BmuysJvXvPb7Pg7WduZ5Ig5u564Uf16CqL3i4mbQumOmU28fgkXI4/afqf0ojY7Nc1qXFty5DaluptWc5ErHmPnU93I4q3EMix38hlhJwZSB2keehJAGpfPPMU2q96V8xyBgGUgggEEcwQehFRzfbfKDZ0OqQ6pWB7OIfExHifyqPE1USTNM1rRt7iFtC6YlpzEh6RxdxR7n4m9yawttt65RtUd1MGHQiVj/qSKm102ypVOcO+KMjSrbX7A6yFjnwAdRwAsmOXP83tVws2Bk8gKqOa893ZxyrpkRWXyIz9PKqU334q3EszRWL9nCpx2oALyY6lcjur5eJrCbrb1bSmv7WI3s7K9xEGUsMFNYLjp00Bqk6nlKxuOcJXxP2p/Zjpb2IETyo7SS/FIoBACoWzpBy3ryro4Bwl7q9mYksI4gWJySZGkJJJ6n7sfWsLxpude1mX/AA4Yl+Z1Mf0YVm+FW2Idn7LvLyblqnCoPxSFI10oo8e8ze3OvmmmmmNRGofVVVVU7qncrD383vi2dblzhpnDCGPPNmHifJASMn1HnWKj36dYbWZ41YT28ch0nGCw76j2PL5VS9zPebXvs4Mk0pwqj4I0Hh+yijmT4+5xV0R7glbG2txLmSCMqWI5MWOogeSg5x6VjyOJ5J4XuZcbhcSON7Xj3n25bXkAIykqc1DDqD8S5H/fKsJuztU21wr/AIT3XHofH5HnXdtDdS7i5mPWPNO9+nWsfa7MmkcIsblicfCRj3J6Vw7ld/ixXNOq/wBOr0VqjHizNFNe6J/PRdSMCAR0PT51915tnQdnDHGeqIi/5VA/pXpr0UdOby063yKUpVQpSlApSlApSlApSlApSlBwygjBGQeoqgOJ24BsX+0Wyk2rHvKOZhY55f8AD8j4dKvW82nDEyJJKiNIwVFZgCxPQKOp6V3zwq6lHUMrDBUjIIPUEHqKg1W3c29PY3C3EDd4cmU/BIvijf0Ph9QdlN2d4ob21W5iOFIOoHqjL8St7eda+8Q92l2ffNDGcxMokj81DFhoPsVPPyIrO8NNoNFs7a5/AsCtjn8TrKhPl0C0VG99t432hevNklNWiBOuFBwuB+Zjz+Yq2txOF1vbxrLeIs05GdLDMcefwqp5E+ZPrVObn6F2hZ9p8AuIs5/eGkn+LTW1VBiNpbr2U8ZjltomUj8igj1UgZU+orXjfzdn+zr1oAS0ZUPET10tyKt5kEEevKtn6164z7USfaZSMgiGNUYg5Go5cgewYCkkJ9ws3iC7EaSduVp2ik+OhBqQc+p0kD6VTO09o3G0LvtHy80zqqJk4XUcJGPJRnmfc1O9nWrxbpzvg/fyav4C6qD7ELmo3wuaMbXtu0x8TBc/nKtpx60Fvbm8NbSzjVpUWe4x3pHUMAT4RqchQOnmcZrObZ3RsrqMxy28eD0ZVCup54KsOYPOs5XFVGqG8OyWtLqa1Y5MTlQ3QkcirehKkHlVxJt+STdR52c9qLd4i+eZYEx5z+YjB+dV1xXlDbZuseHZL8xFHn/WpFtBxFujbr4zyr+srOf5UqKhm4+xlu9oW9u4zGWy46ZVFLFeXngD51sLs/czZ8Eiyw2kKSJzVlXDDkRyPsTVN8E7TXtQN/hwyN9dK/8AMa2CJxSCWsXES5Mm1rxj4TFB7Rqqf8tYGa4cxohYlI9ZRfAFzliB5kjrXdtmfXcTyE51TSnPoXbB+mKle+G5jW9hZXsYyrQRC4wMYdgCkp9G1aT5YX5BanCrd21t7JJoWErzqGebGCf92B+FVORjzBzU2qhOEG+ItJ/skzYgmYaCTyjkPL2CvyHhzx51fYNEMVxivqlUcYrmlKBSlKBSlKBSlKBSlKBSlKBWN3iE5tZvsraZ+zbsyQG7wGRyPWslSg1HuL+aSTtpJZGlyDrdjrUr7/DgjoKs+w41yrFpmtA8oGNayaFPqV0kj5VI98eFEF3K08En2eVubjSGiY/mK8ireoPOorHwTus967hA8xG+foWqKgm8W257+6M8ozI+lERcnABOmNPE82PuSasPaW777M3bmWTAmuJI+0APTWyL2efHSo5+xqZbncNLSxYSkmecdJJAMLn8ijkp9eZ9awvH25xZW8YPN7gEjzCRyH/5FaCjz/34f/lWdu1xhmhjEd1D2+kYEitocjw1Agg+HOsfwn3Tg2gbtbhSVVIgjKcMrMzksp88KOvmazt3wRbP3N73f95F3vqpAP0FB4N5eMFxPGY7WL7PqGDIW1yc/wAowAp9edRTcndKbaVwI1yIgczTdcDqVB8ZGz8s597I2PwVhVg11cvIPyRqIlPu2S2PQYqy9lbKgtohFbxLFGOiqABz6n1PrQePa2wIprB7JRojaLs1x0XAwpHsQD8q1ivrKe0nMUoMc8TA8jzBByrqfI4BBrbWo3vduVa7RUdspWRRhZUwJB6ZIwy+hyKCu9i8aXWMLc23aOB8cbhdXqykcj7GvqPibc7QvbW1t4hBG9xHrOrXIyq2t1zgBQVQ58etfM/BKXV93eqV/biOr56WxUh3P4Ux2dwlzJcPLJGSUAUIgJVlyRzLcmPiKCnN8bntdoXci/inkx/CdGP5anXFKMwbJ2VakYIUE+eYoQpz85TWcl4LxNIZDeS5Z2cjs0xlm1EfqakW/O4K7SaItcPEIlYKqqrAlyuWOf3QKCDf7P8Ab5uLuTHSOFQf3mkJH8q/pVubduhFazyt8KRSMfZVJ/pWF3E3MTZkcqJK0vaOGLMoUjCgY5cj0z86zW3tm/abWa3LFBNG8ZYDJAcFSQD44JojU+yj1GND+JkU+eWIB+eTW2MmyontvsrqGiMfZlT0K6dOPpVd7P4MwxTxS/a5G7ORH0mNMNoYNpOPA4xVpUVqxvju69hdvbPzX4om6a4yeR9x0PqPWrc4O75/aYfsc7ZnhUaGJyZIxyB59WXkD58j41I9+dyodpxoHYxvG2VkUAsAfiTn1U8voDUY2TwhFtPHPDfzLJG2QdCYPmpA6qRkEetBZ9K4Fc1UKUpQKUpQKUpQKUpQKUpQKUpQKUpQKUpQKq3jPsK9u3tha27SqgcsVZBgtpAHeYeAq0qUFdcGd3rizguPtMJieSUEBipJVUUA90kdc1YtKUClKUClKUClKUClKUClKUClKUClKUClKUClKxS7yWZn+zC5iM3+HrGrPTHv6daDK0pSgUpSgUpSgUpSgUpSgUpSg+JpVRSzEKoGSScAAeJPhVd7Z4w2MRKwLJcEHqoCx/Jm+IeoBHOo9x33gcyR2CEhNIklAyNRJIRT5ryJx7VitwuGibQtPtMly0eWdVVFVsaDpy+rzxnAxyIqKs3dHiJZ379khaObGezkGM+ehhyb261Kr25WKN5G+FFZm9lBJ/QVRWwOFV616yyMYYoJAROuNTkEFTCPPHUnkOnOrH4tbR7DZEwz3pNMQ54J7Q4J5eOkMfkaDo2HxTs7ueK3ijuNcpwMooA5E5Pe5DAqditZOHW3ILG+FzcCQosUgURgMdTlAMgkctOv9K2F3Z27HfWy3MKuI3LBdYAY6GKE4BP4lP0oSy1KiO8vEWwsnMUkhklHWOJdbL+8fhX2JzXt3O3sj2jHJJFHIio+nL6QScAnABPmKqJDSsbt3b1tZxdrcyrGvhnqxHgqjmx9AKgl5xpslP3UM8nPrpWMe41HP6UFm0qFbt8TrC8kEIZ4ZWxpWUBQxP4VcEqT6Zz6VNaBSvPf30cEbSzOsaKMszEKo9yar3avGWyjJWCOWfBxqAEaH2LcyPXFBZVKrHZXGe0dtNxDLCCQNfKRBnxbTzA+VWPZ3ccsayROro4BVlOVIPiCOtB30rg1Fd5+INjYt2csheXxjiGth+94J8yKCV0qtbLjNYs+mSOaJScayoZR6tpJIHyNSPbm/uz7WNJJJw3aLqjWP7x3BGQQF6A+ZwOdBJ6VWcXGiyL4aG4VPzaVb5lQ2fpmp/sjakN1Cs8Dh42HJh+oI6gjoQeYoMRxFecbLuTba+17PlozrAJGsrjnqC6unOtf9zd357u8iSGNsJKjSOVIVAjhmLE/i7pGOuTWwW+G+Fvs1Y2uNZ7RmChAGbujJOCRyGRz9RXzufvdb7RWRrdJFWNgGLqq5ZhnAwxycYPzqKklK6bq6SJDJI6oijLMxCqB6k9Kgm0OL+zY2KoZZsZ70cfc5eTOV1D1GRVRYNKr/ZnF7Z0rhXMsOfxSJ3AfIspIX3OBU+ikDAMpBBAIIOQQehB8RQfVKVF959/rCxbRNKWk/wAKMdo4/eA5L8yKCUUqqG42wasC0l0+epM++M/1qZ7qb7We0MiByHXm0bjRIB+bHiPUZpsSSlKUClKUFP8AHTdp20bQjXIRezmx1CgkpJ+6CSD+8KhXD3fR9mzHUC9vIR2qDmQf8RPUDqPGtkpIwwKsAQRgg8wQfA1QXFPcNbBluLfP2d20lOvZsckAH8hxgeR5eNRV82V2k0ayxsGR1DKw6EGql4/7Q/8AK22fF5SMeQKLz/jblXHALashNxaE5jRVkQflLsQwHocZ+tQzirtXt9q3B56YsRLzz/djLEe7MaDLbh8NRtG0+0tcGPMjqoCBuSHBOSfPNTHiBts7I2bBZWpAldSgcDBVFH3koH5ix5erZqY7kbM+zbOtoeeViBOeup8u38zGqS4ybU7basi57sEaR9cjJXtHI8vjUH9yg8u4W4c20izBxHAhIeQ95mbqVUZ5nnkk/rVtwpBu/sptTmXDsVyArSSSElUAHTp18ACayfDbZn2bZVrGRhuz1uD11SkyN+r4+VVpx42kXu4bbPdjj7QjP4pCVGR5hV/mNBEoYr/bd8TyeYjvHmsUKfrpX6lj+lgW/BOIR5mvZA+nmURFQY6nvAkj5ivbuVf22ydgpeSKzGY620KCzM5KomegAAAyahm0d4Np7emNtCmmLlqjQns1Bx3p5Pxfu4+R60EN23aJDPLEsySojYWVD3W6cx5EE45eI5VsTuZtqRdjx3N/qjaONzIzrglYy2H04zkqAcY514tyeGltY4lkxPcD8bAaE/4S/h9zk1i+PO0WSyhgU/30vf65KxqW+mrTnNBWm9u81zte7VQpKF9NtAOvPkGbzcgZJPw+nOphsbgtK8Ya6uBG5/BGofHoWPU9Og/604BbNRprm5bmyKkaegfUzn3OlR9aumg1p393Jl2ZImX7SKTISTGkhlAJRx0B6keeD5VNuAW1mIuLM/AmiVPTtCwce2QD8zXr/wBoC4AtbWLnqadnHliOJ1b9ZVrG/wCz/afe3k2eQWKPHuXY/wBPrQSvi1vc1jbLHCcTz6gjddCrjXJjz7wA9T6VU24m5M21HkYPoiRvvJW7zM7d4hR4tggknzHy9/GfaPa7VZM92CNE65GWGtseXxKP4atbhNs/sdkW+QQ0imUg9fvSWH8pFBTfELcttmSRDtRKkofSdOlgY9GQRkgg6xg+hry7j7nS7SmZIyI400mWQjIGonCqPxMQDy8KlPHjaAe+ghB/uYWJGOhmYePtEP1qbcFNnCLZayYGZ5HcnGMgHQufPkv60FacQeHzbNSOVZe1jdtJyoVlbBI8eYIB+lSX/Z/vH13kHMxgRSDyVm1q31Cr/lpx/wBo961th0+8lbn5YRRj+JjWU4C7NCWc9wes0ukHP4YAVH87SfWgi/HTaPabQihzyhh/mmIJ/SNKnXBjZ4h2Usp0jtneUnpy+Fcn0Vapbeu7e72jcyICWkndYxnV8LdnGB6HSD86u/fiT+z9gNFGSNMEduh5ZGoLGCfkc0FTcQd75dp3PZx6jbq+mCMDJkOcCQj8RJ+EeANSfYnBiWSIPdXHZOcHs0UPpBHRmJwT7cqw3BXZYl2mJCuVgjZx5Bm7iH6F/oK2EoNY9+t0ZNmXCxs4kSQM0TgYJCkBgw8GGoehzVo8CdpvJYyQucrBLpj8wrKrhfYEnFRfj1eBr23hH/pwsx95mGB9Iv1qWcE7EQ7LadsjtZZHOemlO4CPTCZoOjixv+9ofsdo2JyoaSTGezVvhC+Gs4Pnge9V5uTw/udo5myI4Cx1SvlmdvxaF/Fz6sT9aj15O15du7t3rifJOegkfAwT+VcAewraqwtEhiSKMYRFCqBgclGB0oKc23wYljhL21x2sg59m6hNQ8QrAnDeWeXt1qttj7UezuY7lQdUL5I8cDlIh9Suoe9bZSOACT4DP0rU2ZPtV2wUY+0XDafQTynH0D5+VBtmDXNcAVzVQqJcT9rXdps9p7QLqV17RiurRGchnUdMg6evIDJ8KltfEsYZSrAEEEEEZBB6gig103M4gz2dzJNOZLhJgO0BbL5X4WTJ0jkcY5Dp0xXu4h8Sv7QgFvFC0UWoNIZCpZtHNRhSQBnnnPgKnG0eDdi7lopJYQfwKVZR+7qBIHpXr2FwnsLeQSNrnYHK9qQVHrpUAE+9RWN4I7tPBBJdyqVafSEU5B7NckMQemSSfpVN7wwst3dKwwwuJsg+sjEZ+RBrbIConvfw+s9oMJJA0cwGO0jIBI8AwIIbHhnpmmh5txt/Yr6GUmF4vs0amVm0lOjE6CDk8kJ5gdRVC2yNfXqry1XNx4g4+9fJ5dcBSfpWwGw9wYrWyuLSOaXFxnXIdAcZUJ3cDHwjyrH7tcK7ezuo7lZ5XaMkqrCPGSpXPJc9CaCexoFUKBgAAAeQHICqP477KdLyK6x93LGI8+Txl2AI8Mqx/wAtXnXk2ps2K5iaGdBJG3xK3Q1UUFutvxFHZPs6/hea2bIQxkB1DHJU5I5A8wQcjpWcu+K0EFv9n2XZ9jgEKzhVVc/iCKSWPj3sVmNocFbckmC5lQZ+FtMmB5AkZPzNe3Y/B2xiYNM8k+MHSxCJn1CAFh6E+FRWK4N7b2ncO4lYzWoLEyyfEHJJKxsPjGTzHRegx0r28d9kvJZxXCDIgkJk9EdcFvYNpzVlW1ukaBI1CoowqqAAB5ACvqWMMCrAEEEEHmCD1B9KI1l3G3ul2bOZEUPHIFEsZOMhScMp8GGT6HNWR/41QthY7SbtGKqoZowmpyFGWDE4yeuK9O2uDdpIxa3kkgz+AYeMfuhhlR6A1zu1wigt5o55Z3leNw6rhVTK81yMZOD60VDeN+0u02gkX+DCucHIDSnUR6EBV+oqweDtj2GyEkbI7UvKc4+E/CeX7Cg15du8JILq5muHuZg0rFmCiPA5BQB3c8gBU1bZCC0NpETEnYmJSmNSArpBXPLI60Gs08hvtokjB+03YA8ARLKFU+2gitpbaBY0VFGFVQoHkFGAPoKgW7fCi2s7qK5WeVzESVVhGFyVZeeFzyDGp/KmVIBxkEZ8s+NBrBvxevd7TuWTJLTdnGDj8GIlHsWGfnWyW7+zxbWkEAziKKNOfXuKBzx48qhGyuENtDcRz9vK/ZyB9LCPSSDkZwoPXnVjURrZxW2n2+1rgjmItMS4/wB2O8MeetmHyq2tnH+zd3AxwHjtNZ5cjJIuQD/G4FeB+D9u1wZ2uZ2JlMrAiPmS+sgnTnGamG9m7639q1s8jxqxUkpjPdIOOYIxkCitf+GOze32rbIcEITI2fERLkfPWUqe8ftp4S2tgRlmeRh44QBV/Vj9KlW5fD2HZ0zzJLJIzJp74QADOcjSBz5V1748Ooto3AnkuJUKoECqEKgAkkjUpOST+lBgeAezdNtcXBxmSUID46YlGQf4marTrGbs7ESytY7aNiyoD3mxqOSSScADxrJSLkEA4yOvl61UawcRNqfaNpXUo5gSMiYBGRF3B+oNbDbB2KIdmxWnTTbqjEeZTDkZ82JNRGw4P28c6TG5mcrIHIIjwxDaueF8TVkYqK1GvLN7eV4XBSSFyp8wUPJh6cgQehyKtjYnGoLEq3dtI8g5F4imlvXSzAqfMdKnm9e41ntAhpkIkAwJUOl8c8A+DDn0IqJf+Cdt/wC6nx7R/wD1oONpcSvtOy76eOExqhSFNbDUzzYB+HIGlW1dTUD4R7M7basBwdMIaRiOg0qVTP8AEw+ldvECW1tkTZdizPHHI0twxbVqmKqgXPQ6VXmMYGR6gTTgPsMpDLeuuO1ISIkcyidWHoXJ99IoLXpSlVClKUClKUClKUClKUClKUClKUClKUClKUClKUClKUClKUClKUClKUClKUCuDXNKDXXbXEi/W+ujb3WmPt3CphJFCodAI1rkA6NWOXWsTtDfjaV0DC93I4OcpGEUn0xEoYj0rY293ftJjmW2hc+bRqT/AKV6LPZkEX91FGn7qKv+gqaXaktx+FE07CS9VoYB0izplf0P+Gnn+I+lXpbwLGioihVUAKoGAAOQAHlXZSqhSlKBSlKBSlKBSlKBSlKBSlKBSlKBSlKBSlKBSlKBSlKBSlKBSlKBSlKBSlKBSlKBSlKBSlKBSlKD/9k=;" vertex="1" parent="1">
          <mxGeometry x="438.9100000000001" y="1210" width="84.05" height="52.87" as="geometry" />
        </mxCell>
      </root>
    </mxGraphModel>
  </diagram>
</mxfile>
